<?xml version="1.0" encoding="UTF-8" standalone="no"?>
<svg
   xmlns:dc="http://purl.org/dc/elements/1.1/"
   xmlns:cc="http://creativecommons.org/ns#"
   xmlns:rdf="http://www.w3.org/1999/02/22-rdf-syntax-ns#"
   xmlns:svg="http://www.w3.org/2000/svg"
   xmlns="http://www.w3.org/2000/svg"
   xmlns:sodipodi="http://sodipodi.sourceforge.net/DTD/sodipodi-0.dtd"
   xmlns:inkscape="http://www.inkscape.org/namespaces/inkscape"
   version="1.0"
   width="301"
   height="340"
   viewBox="0 0 225.75 255"
   preserveAspectRatio="xMidYMid meet"
   id="svg248"
   sodipodi:docname="X.svg"
   inkscape:version="0.92.4 (5da689c313, 2019-01-14)">
  <g
     transform="matrix(0.01869878,0,0,-0.01877159,2.790211,267.54851)"
     id="g246"
     style="fill:#2e70e7;stroke:none;stroke-width:5.33756065">
    <path
       d="m 5659,14073 c -12,-27 -43,-93 -69,-148 -27,-55 -52,-111 -56,-125 -4,-14 -17,-41 -30,-60 -13,-19 -24,-39 -24,-44 0,-5 -6,-17 -14,-25 -21,-25 -76,-128 -76,-144 0,-8 -7,-20 -15,-27 -8,-7 -15,-21 -15,-30 0,-10 -8,-33 -17,-52 -9,-18 -22,-45 -30,-60 -7,-14 -13,-35 -13,-46 0,-11 -7,-36 -15,-55 -11,-28 -15,-78 -15,-207 v -170 l 45,-96 c 25,-52 45,-98 45,-101 0,-3 14,-25 30,-50 17,-24 30,-46 30,-48 0,-8 64,-100 92,-133 38,-44 35,-71 -11,-127 -59,-71 -104,-104 -179,-130 -126,-44 -269,-141 -333,-225 -52,-69 -109,-184 -109,-219 0,-17 -11,-42 -26,-60 -23,-28 -32,-31 -80,-31 -30,0 -67,-6 -82,-14 -38,-19 -177,-66 -196,-66 -30,0 -372,-127 -401,-150 -5,-4 -23,-10 -38,-14 -16,-4 -45,-17 -65,-30 -20,-13 -48,-27 -62,-31 -14,-4 -38,-17 -55,-30 -16,-12 -43,-25 -59,-29 -55,-13 -180,-79 -306,-161 -36,-23 -121,-77 -190,-120 -69,-44 -159,-104 -200,-134 -41,-31 -88,-64 -105,-75 -16,-10 -59,-44 -95,-75 -36,-31 -85,-73 -110,-92 -25,-20 -82,-72 -127,-115 -45,-44 -110,-103 -145,-133 -35,-30 -85,-82 -112,-115 -27,-34 -88,-101 -137,-151 -48,-49 -102,-110 -119,-135 -17,-25 -45,-63 -61,-85 -16,-22 -42,-58 -57,-80 -15,-22 -59,-84 -99,-138 -40,-54 -73,-100 -73,-102 0,-3 -14,-24 -30,-47 -17,-22 -30,-45 -30,-49 0,-4 -13,-27 -29,-51 -16,-24 -39,-63 -52,-88 -13,-25 -37,-67 -55,-95 -17,-27 -39,-68 -49,-90 -10,-22 -38,-83 -62,-135 -25,-52 -51,-111 -58,-131 -7,-19 -27,-62 -43,-96 -17,-33 -37,-83 -43,-109 -7,-27 -23,-73 -36,-103 -12,-29 -23,-60 -23,-68 0,-8 -6,-29 -14,-46 -24,-56 -45,-140 -51,-207 -4,-36 -17,-87 -29,-115 -12,-27 -30,-97 -40,-155 -9,-58 -21,-123 -27,-145 -5,-22 -14,-73 -19,-113 -5,-40 -13,-78 -17,-85 -7,-11 -22,-469 -25,-782 -2,-141 10,-282 26,-310 6,-11 14,-63 17,-115 4,-52 11,-113 17,-135 10,-37 23,-114 42,-240 9,-58 55,-225 76,-273 8,-18 14,-44 14,-58 0,-23 49,-181 71,-229 5,-11 20,-51 34,-88 14,-37 31,-78 39,-90 7,-12 19,-44 25,-72 19,-78 104,-267 176,-390 23,-38 51,-90 64,-115 39,-79 82,-154 106,-185 12,-16 31,-48 43,-70 11,-22 42,-67 69,-100 27,-33 59,-78 73,-100 13,-22 42,-63 64,-92 23,-28 67,-86 98,-130 138,-191 456,-504 739,-728 129,-101 513,-365 533,-365 5,0 35,-18 68,-40 32,-23 69,-45 81,-50 12,-6 29,-14 37,-20 14,-9 140,-69 354,-170 50,-23 124,-53 165,-66 42,-14 92,-32 111,-40 87,-38 186,-70 290,-95 19,-4 69,-19 110,-33 41,-14 96,-26 123,-26 26,0 57,-5 68,-11 45,-24 142,-41 294,-53 109,-9 173,-19 200,-31 61,-27 359,-55 610,-55 139,-1 411,13 515,26 93,11 247,35 315,49 39,8 92,17 119,20 28,3 82,16 120,29 39,13 97,27 129,30 51,6 150,32 252,67 17,6 66,21 110,34 121,36 433,162 510,207 11,6 81,43 155,81 142,73 153,79 237,130 150,91 237,148 321,209 51,38 103,73 115,77 12,5 45,29 73,53 29,23 78,63 109,88 32,25 75,64 96,88 20,24 57,57 81,74 24,17 52,40 63,50 11,10 38,34 59,54 22,19 49,48 61,65 12,16 65,73 116,127 52,53 120,129 152,167 31,39 80,97 108,130 27,33 57,74 66,90 9,17 28,46 43,65 98,129 130,174 130,185 0,7 14,31 30,53 17,23 30,45 30,49 0,5 20,39 45,76 25,38 45,73 45,77 0,5 10,21 23,37 13,15 36,57 51,93 16,36 37,76 46,90 21,30 130,250 130,262 0,4 11,31 24,58 14,28 27,65 31,83 4,18 14,50 24,72 10,22 28,74 40,115 12,41 34,109 47,150 14,41 29,93 34,115 9,47 27,99 46,137 8,14 14,50 14,80 1,29 7,64 15,78 8,14 14,41 15,61 0,20 7,56 15,79 8,23 15,64 15,91 0,26 5,58 10,71 6,13 14,68 19,123 5,55 14,120 19,145 9,40 8,359 -2,595 -6,147 -23,310 -35,338 -6,16 -11,59 -11,96 0,38 -7,84 -15,104 -8,20 -15,66 -15,102 0,37 -6,76 -12,88 -15,26 -36,110 -47,187 -16,103 -33,175 -46,190 -7,8 -20,38 -30,65 -10,28 -22,55 -25,60 -4,6 -10,29 -14,53 -3,24 -11,51 -16,60 -18,32 -40,94 -40,113 0,10 -20,57 -45,103 -25,47 -45,94 -45,104 0,26 -41,125 -90,217 -23,44 -58,109 -77,145 -39,73 -56,102 -94,157 -57,83 -125,187 -149,227 -14,24 -36,53 -49,67 -13,13 -35,42 -50,64 -58,89 -170,232 -239,307 -20,22 -42,48 -47,59 -21,37 -327,339 -459,452 -12,9 -46,40 -76,68 -64,59 -205,166 -305,231 -38,26 -88,61 -110,78 -22,18 -60,43 -85,56 -112,60 -180,100 -197,117 -11,9 -27,17 -36,17 -9,0 -19,5 -22,11 -4,5 -17,15 -28,20 -12,5 -42,21 -66,34 -24,14 -49,25 -54,25 -5,0 -31,12 -56,28 -25,15 -75,40 -111,56 -36,16 -103,47 -150,68 -112,52 -173,75 -435,157 -189,60 -280,81 -353,81 -93,0 -118,33 -141,183 -4,26 -13,53 -19,59 -7,7 -12,22 -12,34 0,29 -85,130 -152,181 -52,40 -133,79 -215,103 -31,10 -56,29 -96,74 -84,95 -84,94 -52,195 15,47 34,102 42,121 21,52 14,338 -10,398 -32,81 -73,157 -127,241 -67,103 -100,159 -136,231 -15,30 -36,64 -45,75 -10,11 -42,58 -73,105 -159,244 -305,430 -338,430 -13,0 -26,-15 -39,-47 z m 751,-1862 c 151,-22 169,-30 200,-90 24,-48 47,-67 96,-80 65,-17 94,-60 135,-201 28,-94 25,-134 -16,-215 -32,-65 -128,-209 -160,-241 -8,-8 -34,-40 -59,-72 -25,-31 -70,-79 -100,-105 -30,-27 -68,-69 -85,-94 -46,-68 -128,-153 -149,-153 -23,0 -107,62 -122,90 -17,31 -12,50 23,84 64,66 147,164 193,232 26,38 64,89 84,114 20,25 54,82 75,127 33,71 37,89 33,137 -4,48 -11,64 -51,113 -26,32 -57,81 -69,108 -60,135 -82,170 -108,170 -23,0 -25,-4 -24,-40 2,-109 41,-201 121,-287 37,-41 43,-53 43,-91 0,-47 -20,-98 -73,-184 -142,-231 -189,-293 -222,-293 -13,0 -26,4 -29,9 -4,5 0,85 6,178 7,92 13,294 13,448 0,278 0,280 24,318 l 24,39 61,-5 c 33,-3 95,-10 136,-16 z m -713,-9 c 15,-25 40,-161 53,-292 5,-58 15,-130 21,-160 5,-30 9,-125 7,-210 l -3,-155 -28,-3 c -15,-2 -41,3 -57,12 -17,8 -56,22 -88,31 -136,40 -186,78 -217,166 -27,77 -18,116 49,209 15,21 39,75 52,120 21,75 22,83 8,123 -35,98 -15,140 77,162 78,19 112,18 126,-3 z m -332,-95 c 8,-13 20,-61 27,-107 11,-79 11,-85 -12,-129 -13,-25 -36,-62 -50,-81 -28,-36 -50,-107 -50,-157 1,-84 69,-198 143,-238 28,-16 70,-40 92,-55 22,-15 60,-37 85,-50 41,-20 78,-46 205,-139 22,-17 63,-42 90,-57 55,-30 135,-79 205,-127 87,-59 210,-184 241,-245 7,-15 23,-40 35,-57 29,-40 57,-113 79,-202 20,-82 16,-195 -8,-280 -19,-63 -75,-153 -125,-200 -42,-39 -122,-83 -151,-83 -25,0 -91,62 -91,85 0,10 29,46 64,80 35,34 81,93 102,131 37,66 39,73 38,159 -1,110 -30,215 -77,277 -49,64 -191,173 -286,221 -47,22 -97,51 -111,64 -15,12 -49,32 -76,43 -27,12 -80,36 -119,55 -38,18 -99,47 -135,64 -36,16 -79,42 -95,58 -17,15 -53,46 -80,68 -88,70 -233,228 -267,290 -38,70 -53,184 -35,272 9,48 16,59 75,110 49,43 71,72 92,119 28,62 56,89 120,117 48,21 57,20 75,-6 z m 1776,-557 c 19,0 73,-13 120,-31 46,-17 101,-35 122,-40 20,-5 83,-25 140,-45 56,-20 120,-41 142,-46 78,-21 181,-61 228,-89 26,-16 51,-29 55,-29 10,0 201,-98 232,-120 14,-9 57,-34 95,-55 165,-91 333,-193 399,-244 27,-20 85,-64 129,-99 45,-34 107,-79 137,-99 30,-20 93,-74 140,-119 47,-45 103,-96 124,-114 99,-78 343,-338 446,-476 14,-18 61,-80 105,-136 143,-183 282,-395 350,-533 18,-38 45,-90 60,-115 101,-179 187,-394 315,-795 24,-75 65,-253 74,-320 4,-27 11,-63 17,-80 40,-131 76,-369 90,-605 13,-207 5,-648 -15,-800 -31,-244 -39,-288 -62,-382 -13,-54 -28,-123 -34,-155 -12,-74 -58,-253 -70,-276 -6,-9 -17,-47 -26,-83 -8,-37 -24,-89 -34,-118 -11,-28 -20,-57 -20,-65 0,-8 -11,-37 -25,-65 -13,-28 -40,-89 -60,-136 -20,-47 -50,-113 -66,-147 -16,-35 -29,-65 -29,-69 0,-3 -22,-49 -49,-103 -66,-129 -73,-141 -97,-176 -11,-17 -30,-49 -42,-73 -13,-24 -36,-62 -53,-85 -17,-23 -49,-70 -72,-104 -96,-143 -166,-239 -187,-258 -12,-11 -34,-38 -48,-60 -44,-70 -169,-211 -218,-245 -12,-8 -32,-33 -46,-55 -30,-48 -215,-239 -278,-286 -25,-19 -67,-55 -94,-82 -28,-26 -76,-66 -109,-90 -32,-23 -102,-74 -155,-112 -53,-39 -116,-82 -139,-95 -23,-14 -75,-47 -115,-75 -40,-27 -80,-54 -90,-60 -10,-5 -62,-35 -115,-66 -124,-72 -509,-259 -532,-259 -9,0 -21,-4 -26,-9 -12,-11 -44,-23 -255,-96 -85,-29 -180,-58 -210,-65 -30,-7 -71,-18 -90,-25 -19,-7 -66,-21 -105,-30 -38,-10 -78,-22 -89,-27 -17,-9 -67,-18 -301,-54 -310,-48 -855,-71 -1023,-44 -34,6 -108,14 -165,19 -56,5 -156,21 -222,35 -66,14 -150,26 -186,26 -36,0 -101,9 -145,21 -43,12 -102,27 -130,34 -28,7 -59,17 -70,22 -10,6 -39,13 -64,17 -54,8 -269,80 -405,136 -55,23 -122,49 -150,59 -54,20 -139,58 -279,127 -49,24 -95,44 -101,44 -7,0 -39,18 -71,40 -33,22 -63,40 -67,40 -13,0 -228,141 -352,230 -38,27 -95,63 -126,79 -30,16 -62,37 -70,47 -8,9 -45,42 -84,73 -89,70 -270,243 -418,399 -12,13 -44,45 -71,70 -46,44 -110,118 -166,192 -14,18 -39,49 -56,69 -104,120 -350,472 -374,535 -4,13 -24,47 -42,77 -46,73 -168,321 -168,341 0,9 -4,19 -9,22 -5,3 -20,41 -34,83 -14,43 -49,134 -77,203 -49,119 -80,210 -101,293 -5,20 -14,56 -20,80 -6,23 -17,71 -25,107 -7,36 -23,106 -34,155 -57,256 -75,395 -94,725 -14,242 -13,459 4,590 5,41 14,127 20,190 10,113 28,220 55,330 7,30 17,75 20,100 4,25 18,72 30,106 13,34 28,90 34,125 20,120 40,201 64,252 14,29 32,77 42,107 10,30 28,78 40,105 13,28 33,77 46,110 37,99 133,307 159,344 10,14 43,71 75,126 104,185 140,241 210,336 39,51 86,119 105,150 37,59 88,121 183,223 31,35 57,67 57,72 0,5 24,34 54,64 30,30 103,105 163,165 59,61 146,142 192,180 45,39 90,77 99,85 10,9 42,32 72,53 30,20 76,61 103,91 54,62 106,100 209,151 40,20 102,55 138,77 167,106 559,307 740,378 268,107 338,132 385,140 28,4 96,16 152,26 120,20 117,22 179,-79 44,-72 181,-224 253,-282 28,-21 72,-51 98,-65 27,-14 62,-35 78,-46 17,-12 47,-27 67,-33 48,-16 184,-104 196,-128 12,-23 8,-33 -42,-107 l -42,-61 -70,-6 c -38,-3 -82,-11 -97,-18 -16,-6 -44,-11 -63,-11 -20,0 -124,-23 -232,-50 -222,-57 -250,-65 -310,-93 -24,-11 -78,-32 -120,-47 -127,-45 -204,-77 -266,-109 -32,-17 -68,-31 -79,-31 -21,0 -202,-94 -212,-111 -4,-5 -14,-9 -24,-9 -10,0 -36,-13 -57,-28 -21,-16 -46,-31 -55,-34 -49,-19 -222,-153 -316,-245 -74,-72 -124,-112 -159,-128 -36,-16 -84,-55 -160,-131 -60,-60 -122,-124 -137,-144 -16,-19 -50,-58 -75,-85 -75,-80 -126,-145 -186,-236 -30,-46 -80,-120 -111,-164 -35,-50 -63,-106 -77,-150 -16,-52 -31,-79 -59,-106 -25,-24 -59,-80 -103,-171 -36,-74 -66,-139 -66,-144 0,-5 -19,-54 -41,-109 -23,-55 -48,-127 -56,-160 -8,-33 -23,-75 -33,-93 -11,-18 -20,-41 -20,-51 0,-10 -11,-47 -24,-82 -13,-35 -27,-100 -31,-144 -4,-44 -11,-88 -16,-98 -15,-27 -48,-273 -49,-357 -1,-41 -7,-111 -14,-155 -11,-62 -12,-115 -4,-240 6,-88 8,-195 5,-238 -4,-67 -2,-87 19,-137 13,-33 24,-80 24,-106 0,-58 17,-139 75,-359 37,-140 102,-329 152,-443 8,-18 30,-71 48,-117 19,-47 48,-111 65,-142 17,-32 48,-90 69,-130 22,-39 50,-86 64,-105 13,-18 35,-53 47,-78 25,-49 95,-143 129,-174 12,-11 33,-43 47,-70 14,-28 53,-80 87,-116 67,-71 170,-196 202,-245 11,-16 67,-74 125,-127 58,-54 119,-111 136,-127 16,-16 70,-59 120,-96 49,-37 99,-76 110,-87 12,-10 35,-27 51,-36 16,-9 89,-55 162,-102 72,-47 144,-91 159,-99 15,-7 36,-21 47,-31 18,-15 166,-90 179,-90 3,0 42,-18 88,-40 46,-22 121,-53 168,-69 47,-15 126,-42 175,-59 125,-43 228,-72 251,-72 11,0 40,-6 65,-14 24,-7 89,-21 144,-31 55,-9 123,-23 150,-30 28,-7 106,-16 175,-20 270,-13 410,-24 448,-35 33,-10 44,-10 73,6 24,12 59,18 114,20 103,2 267,19 375,40 47,8 121,22 165,29 44,7 93,18 108,24 16,6 39,11 51,11 22,0 96,21 321,92 92,29 343,134 390,163 11,7 43,21 70,31 28,9 62,26 77,36 14,10 31,18 36,18 5,0 50,26 98,58 49,32 116,73 149,92 33,18 117,78 187,132 70,54 131,98 135,98 27,0 303,266 354,342 21,31 55,70 75,86 20,17 48,48 63,70 15,22 73,89 129,148 74,77 113,127 138,177 19,39 48,89 63,111 116,169 308,577 361,766 10,36 27,85 38,110 11,25 28,82 36,128 9,46 20,92 26,102 6,11 13,50 17,88 3,37 16,108 30,157 26,100 42,306 42,555 0,179 -23,551 -38,605 -38,142 -71,303 -71,349 0,35 -7,67 -19,88 -10,18 -26,67 -35,108 -25,109 -38,153 -52,170 -7,9 -35,65 -61,125 -27,61 -69,143 -94,184 -52,87 -133,232 -155,280 -18,40 -130,207 -184,276 -22,28 -47,64 -55,81 -18,39 -107,139 -226,257 -49,48 -89,91 -89,95 0,5 -66,67 -147,139 -82,72 -159,143 -172,157 -13,14 -41,34 -62,45 -20,11 -83,54 -139,95 -56,42 -106,76 -111,76 -6,0 -25,11 -42,24 -27,20 -79,50 -262,149 -80,44 -207,95 -251,102 -27,4 -101,31 -164,60 -63,29 -140,58 -170,64 -91,19 -230,51 -330,76 -52,14 -137,31 -188,39 -51,9 -101,20 -111,26 -11,5 -36,38 -57,72 -20,35 -50,76 -66,92 -15,15 -28,37 -28,47 0,10 33,54 74,96 41,43 85,92 97,108 13,17 28,35 34,41 5,6 49,54 97,107 48,52 113,128 145,168 31,41 68,87 82,103 l 26,28 100,-6 c 55,-4 116,-7 136,-6 z m -1281,-773 c 51,-25 73,-65 52,-95 -47,-67 -97,-161 -113,-213 -25,-80 -27,-268 -3,-331 53,-139 91,-185 211,-258 48,-29 136,-92 195,-139 86,-68 117,-100 156,-160 27,-42 56,-94 65,-116 37,-90 30,-287 -13,-379 -13,-27 -52,-78 -87,-115 -82,-86 -85,-98 -35,-153 47,-52 65,-85 58,-104 -8,-22 -30,-17 -82,19 -27,19 -74,46 -104,60 -64,32 -78,40 -142,85 -26,17 -50,32 -54,32 -4,0 -22,11 -40,25 -18,14 -35,25 -38,25 -14,0 -182,134 -198,158 -65,95 -84,176 -67,296 14,108 106,291 155,310 22,8 73,-21 86,-50 9,-19 8,-36 -5,-77 -33,-107 -41,-190 -27,-274 23,-140 55,-188 180,-278 23,-16 56,-40 72,-52 63,-46 130,-18 172,72 40,84 43,133 11,245 -45,160 -107,249 -237,340 -87,61 -298,259 -352,330 -101,132 -121,185 -130,337 -6,101 12,208 46,277 26,50 135,188 162,203 24,14 42,10 106,-20 z m -396,-217 c 6,-6 4,-42 -3,-92 -7,-46 -11,-132 -9,-193 3,-102 6,-115 41,-189 20,-43 66,-114 102,-158 36,-44 65,-90 65,-101 0,-28 -65,-129 -94,-147 -21,-13 -150,-16 -188,-4 -27,8 -41,78 -34,170 4,48 3,92 -4,108 -13,35 -21,565 -9,588 17,33 106,44 133,18 z m -296,-72 c 12,-16 31,-131 43,-268 9,-96 12,-182 22,-488 3,-72 8,-107 18,-117 9,-10 47,-16 114,-20 140,-8 142,-10 143,-169 1,-90 6,-145 22,-206 24,-94 33,-108 137,-232 40,-48 73,-92 73,-98 0,-17 -30,-72 -62,-113 -17,-20 -41,-60 -54,-87 -28,-58 -43,-68 -115,-75 -104,-10 -596,-26 -842,-27 -202,0 -251,-3 -263,-15 -8,-8 -14,-17 -15,-21 -7,-70 -6,-209 1,-247 5,-27 12,-178 15,-334 3,-156 10,-345 15,-420 5,-75 10,-275 10,-446 1,-170 6,-377 11,-460 5,-82 12,-240 14,-350 14,-546 23,-812 30,-828 11,-27 51,-31 127,-13 49,12 130,18 276,21 114,2 331,9 482,14 151,5 289,9 305,8 17,-1 103,2 192,6 170,9 196,5 208,-32 6,-20 -48,-193 -90,-286 -42,-93 -55,-126 -55,-139 0,-14 -24,-72 -65,-161 -13,-27 -25,-59 -27,-70 -2,-11 -12,-21 -24,-23 -18,-3 -24,6 -38,50 -24,73 -42,98 -70,98 -34,0 -62,-27 -94,-90 -42,-82 -63,-80 -158,9 -41,39 -83,71 -93,71 -18,0 -80,-45 -180,-132 -24,-21 -47,-38 -52,-38 -16,0 -39,32 -39,56 0,14 -13,50 -29,82 -16,31 -38,88 -50,126 -12,39 -39,107 -61,153 -22,45 -40,87 -40,93 0,21 -33,60 -49,60 -21,0 -44,-25 -96,-105 -60,-93 -147,-196 -161,-193 -15,4 -310,274 -388,357 -77,80 -208,257 -246,332 -12,23 -40,69 -62,101 -70,103 -132,232 -236,493 -22,55 -43,116 -47,135 -4,19 -13,44 -20,55 -7,11 -16,47 -20,80 -3,33 -16,89 -27,125 -36,111 -42,744 -9,905 7,33 19,96 27,140 9,44 22,105 31,135 9,30 24,87 34,125 45,174 58,216 91,290 20,44 38,92 42,106 3,14 16,41 29,60 13,20 32,58 42,85 11,27 25,59 33,71 11,18 12,49 2,190 -7,92 -15,215 -19,273 -4,58 -4,115 0,126 14,39 62,63 146,75 43,5 100,14 126,20 27,5 84,9 127,9 96,0 100,-5 100,-112 0,-133 27,-238 60,-238 25,0 261,288 311,378 12,20 29,51 39,67 18,28 19,52 16,320 -2,164 -9,307 -15,330 -12,45 -15,294 -3,311 9,15 65,39 187,79 150,49 194,56 213,33 z m 1460,-184 c 7,-80 10,-149 8,-153 -3,-4 -1,-38 4,-76 5,-39 6,-121 3,-184 -8,-153 -14,-160 -145,-174 -88,-9 -99,-8 -129,9 -18,11 -42,34 -52,53 -26,43 -15,66 58,122 57,45 111,116 135,179 7,19 21,46 31,60 18,26 37,124 46,225 5,69 9,85 21,85 4,0 13,-66 20,-146 z m 276,121 c 43,-14 85,-25 93,-25 25,0 130,-59 138,-77 5,-10 9,-152 10,-316 2,-280 3,-300 22,-325 18,-25 160,-111 243,-147 61,-27 93,-47 180,-110 47,-34 103,-72 125,-85 73,-44 359,-328 448,-446 28,-37 58,-66 72,-70 44,-11 245,-11 508,-1 297,12 289,13 345,-73 52,-82 162,-305 162,-329 0,-13 -9,-25 -22,-30 -13,-5 -136,-15 -274,-21 -138,-6 -268,-15 -290,-20 -21,-5 -56,-10 -77,-10 -30,0 -39,-5 -46,-23 -9,-23 -1,-130 18,-247 6,-36 11,-108 11,-160 0,-52 5,-128 10,-168 17,-131 21,-316 10,-498 -18,-292 -19,-306 -29,-369 -37,-230 -51,-295 -69,-318 -5,-7 -13,-33 -16,-60 -4,-26 -18,-72 -32,-102 -13,-31 -24,-72 -24,-93 0,-21 -6,-46 -14,-57 -7,-11 -19,-38 -26,-60 -11,-35 -77,-198 -99,-244 -8,-16 -33,-64 -102,-199 -20,-40 -48,-87 -61,-105 -14,-17 -48,-75 -76,-127 -35,-65 -61,-101 -82,-113 -17,-10 -38,-29 -46,-43 -9,-13 -22,-24 -30,-24 -18,0 -56,-52 -92,-125 -17,-33 -47,-76 -67,-95 -21,-19 -62,-69 -93,-110 -79,-106 -247,-270 -277,-270 -14,0 -41,18 -69,45 -26,25 -71,63 -102,86 -30,22 -76,61 -101,85 -26,24 -54,44 -64,44 -20,0 -80,-64 -109,-117 -11,-21 -34,-56 -51,-78 -16,-22 -41,-62 -55,-89 -39,-74 -65,-96 -116,-96 -24,1 -54,7 -68,15 -48,27 -73,19 -132,-43 -30,-32 -63,-72 -72,-90 -10,-20 -24,-32 -37,-32 -22,0 -22,-2 -42,105 -15,77 -20,110 -53,325 -7,52 -18,115 -23,140 -31,144 -63,403 -55,433 15,51 42,58 272,68 114,5 333,16 487,24 154,9 359,16 455,16 96,0 222,4 279,8 99,7 105,9 128,37 22,28 23,34 23,241 0,169 -3,222 -16,260 -13,38 -16,89 -15,261 0,118 -4,235 -10,260 -5,26 -12,170 -14,322 -2,151 -9,446 -16,655 -11,362 -17,676 -18,922 -1,101 -3,114 -22,132 -29,27 -92,35 -165,21 -32,-6 -138,-13 -234,-16 -96,-2 -224,-6 -285,-9 -264,-14 -544,-16 -563,-6 -11,6 -27,27 -36,48 -10,21 -28,59 -42,84 -13,26 -24,54 -24,63 0,9 17,35 39,59 53,59 84,111 110,192 20,59 23,80 16,145 -4,41 -10,107 -14,145 -3,39 -17,96 -30,127 -23,55 -24,58 -7,77 13,15 34,20 93,23 70,3 77,6 104,35 54,62 59,110 45,501 -8,236 -8,254 9,272 24,26 54,25 149,-5 z m 489,-167 c 22,-11 67,-24 100,-30 62,-10 65,-12 372,-192 44,-26 109,-70 145,-97 36,-27 106,-77 156,-111 217,-149 534,-474 622,-637 7,-13 30,-43 51,-67 58,-62 93,-121 89,-152 l -3,-27 -145,-5 c -80,-3 -223,-2 -318,2 -204,7 -207,9 -294,124 -28,38 -55,71 -58,74 -4,3 -52,46 -106,96 -128,119 -177,159 -244,203 -30,20 -71,48 -91,64 -20,15 -40,27 -45,27 -6,0 -28,13 -50,29 -21,16 -79,50 -129,77 -180,95 -193,118 -180,312 4,64 8,162 9,217 1,55 5,106 9,113 11,16 55,8 110,-20 z m -2769,-30 c 11,-15 16,-45 16,-91 0,-37 7,-102 16,-143 12,-58 14,-126 12,-302 -3,-223 -3,-228 -30,-279 -43,-83 -175,-213 -179,-175 0,4 -3,33 -5,64 -2,32 -15,83 -29,114 l -25,57 -73,-7 c -39,-4 -97,-13 -127,-21 -30,-7 -88,-16 -128,-20 -40,-3 -98,-13 -130,-21 -31,-8 -90,-19 -131,-25 -89,-11 -126,-31 -117,-62 34,-117 75,-543 57,-590 -6,-16 -11,-43 -11,-60 0,-18 -10,-52 -21,-77 -12,-25 -32,-72 -44,-105 -13,-33 -35,-91 -50,-130 -15,-38 -29,-79 -32,-90 -3,-11 -9,-24 -13,-30 -4,-5 -24,-53 -44,-105 -21,-52 -44,-111 -51,-130 -8,-19 -22,-66 -30,-105 -9,-38 -22,-99 -30,-135 -30,-131 -45,-238 -54,-370 -12,-171 2,-486 23,-554 9,-27 16,-72 16,-100 0,-50 75,-319 105,-376 7,-14 20,-43 28,-65 8,-22 36,-89 61,-150 25,-60 46,-115 46,-121 0,-6 21,-42 46,-80 68,-102 125,-197 179,-302 26,-51 66,-116 90,-145 23,-28 45,-64 49,-79 3,-16 11,-28 16,-28 22,0 170,-158 189,-202 14,-34 47,-70 135,-148 143,-126 148,-145 39,-141 -66,2 -82,-6 -165,-86 -42,-40 -74,-63 -85,-61 -26,5 -58,120 -73,266 -17,159 -32,257 -41,273 -5,10 -9,36 -9,59 v 41 l -36,-3 c -29,-2 -40,-9 -53,-34 -104,-194 -288,-428 -359,-455 -36,-14 -300,-21 -341,-9 -42,12 -196,166 -247,248 -149,240 -194,324 -279,523 -83,192 -101,247 -180,534 -15,55 -31,127 -35,160 -5,33 -15,80 -24,104 -9,24 -16,70 -16,102 0,32 -7,88 -16,126 -13,58 -15,110 -9,343 10,417 16,488 42,555 9,22 19,76 24,120 14,135 61,340 94,405 7,14 15,41 18,61 3,20 16,61 30,90 13,30 35,83 47,119 36,101 210,446 276,546 32,49 62,96 66,104 4,8 34,49 67,90 33,41 81,107 108,145 74,108 406,430 557,540 22,17 70,51 106,77 36,26 81,59 100,73 117,86 330,205 368,205 9,0 37,10 62,22 62,29 171,66 197,67 12,1 29,-9 37,-21 z M 5858,8788 c 17,-17 15,-78 -5,-100 -18,-20 -63,-24 -81,-6 -21,21 -13,58 17,89 32,31 50,36 69,17 z m 1747,-227 c 28,-47 52,-601 80,-1846 2,-121 9,-310 16,-420 14,-265 4,-577 -20,-599 -13,-12 -51,-17 -167,-20 -82,-2 -255,-8 -384,-14 -129,-6 -341,-13 -470,-16 -337,-8 -761,-24 -930,-36 -258,-18 -1008,-28 -1078,-14 -22,4 -34,14 -37,28 -12,51 -26,400 -35,871 -5,281 -11,528 -14,550 -3,22 -8,157 -11,300 -3,143 -10,397 -16,565 -5,168 -9,348 -9,401 0,140 -4,137 195,151 163,12 406,15 730,10 269,-4 459,5 503,25 26,11 70,17 152,18 63,1 176,7 250,13 325,26 1234,50 1245,33 z m 1685,-320 c 15,-4 32,-21 42,-41 28,-59 106,-283 111,-320 2,-19 9,-55 15,-80 49,-202 65,-340 76,-640 7,-188 -18,-510 -54,-699 -5,-29 -10,-72 -10,-95 0,-22 -6,-61 -14,-86 -8,-25 -22,-72 -31,-105 -8,-33 -20,-73 -26,-90 -6,-16 -15,-48 -19,-70 -9,-46 -88,-275 -100,-290 -4,-5 -13,-28 -20,-49 -7,-21 -56,-126 -110,-232 -88,-174 -159,-286 -205,-324 -9,-7 -32,-37 -52,-67 -24,-36 -44,-55 -62,-59 -14,-2 -48,-14 -76,-26 -80,-33 -99,-33 -127,-4 -13,14 -39,56 -58,92 -37,70 -89,124 -119,124 -12,0 -41,-31 -79,-82 -75,-103 -113,-141 -135,-132 -32,12 -177,253 -177,295 0,13 23,62 51,109 28,47 62,108 77,135 14,28 45,77 68,110 44,64 104,177 104,196 0,6 20,45 45,86 25,40 45,84 45,97 0,12 11,45 25,72 31,59 108,276 140,394 12,47 28,98 34,113 6,16 11,49 11,74 0,25 11,86 24,137 19,71 26,128 31,261 4,94 11,192 16,220 6,31 6,85 -1,145 -5,52 -15,223 -21,380 -6,157 -13,315 -16,352 -4,62 -3,67 19,79 15,8 98,15 243,19 297,9 306,9 335,1 z M 4869,4940 c 40,-85 49,-124 34,-133 -27,-15 -153,84 -153,120 0,35 21,93 37,102 28,15 39,3 82,-89 z m 2992,74 c 18,-21 13,-181 -7,-250 -12,-43 -21,-55 -50,-69 -42,-20 -66,-15 -140,26 -78,45 -75,63 27,164 45,44 95,95 112,113 35,37 40,38 58,16 z m -3943,-41 c 17,-32 60,-217 67,-283 7,-70 38,-185 56,-207 6,-7 18,-13 26,-13 8,0 79,66 159,146 l 144,147 98,-7 c 87,-6 100,-4 127,14 41,27 69,25 118,-8 23,-16 49,-32 57,-36 8,-4 42,-24 75,-46 33,-21 83,-53 111,-69 29,-17 61,-43 73,-59 11,-17 32,-33 46,-36 40,-10 496,-241 578,-293 23,-14 72,-39 110,-54 39,-16 99,-48 136,-72 97,-63 260,-139 303,-140 20,-1 62,10 95,25 32,14 121,49 198,78 77,28 150,61 162,72 12,11 57,37 100,57 43,20 105,56 138,79 131,95 318,212 340,212 12,0 36,-7 51,-15 42,-22 51,-19 78,23 31,50 91,102 118,102 11,0 50,-25 86,-56 49,-42 71,-54 86,-49 21,6 257,34 289,35 9,0 26,9 37,20 17,17 20,33 20,116 0,106 15,183 38,192 18,6 78,-59 122,-134 59,-102 96,-109 147,-29 17,28 43,64 57,81 14,18 26,36 26,42 0,5 9,21 21,36 25,32 43,25 84,-34 15,-22 45,-50 67,-62 21,-12 38,-29 38,-38 0,-19 -96,-135 -190,-228 -108,-108 -289,-255 -406,-332 -29,-19 -84,-56 -121,-81 -63,-43 -157,-91 -448,-229 -145,-69 -271,-119 -320,-127 -22,-3 -49,-12 -60,-18 -18,-11 -165,-54 -305,-90 -54,-13 -152,-30 -358,-60 -160,-23 -664,-21 -847,5 -204,28 -274,40 -325,55 -25,8 -64,17 -88,20 -24,4 -91,23 -150,42 -59,19 -125,38 -147,43 -135,29 -616,250 -732,336 -17,13 -34,24 -37,24 -10,0 -104,66 -236,167 -224,170 -294,230 -308,265 -8,18 -43,63 -78,100 -35,36 -64,71 -64,77 0,6 9,20 20,31 18,18 33,20 128,20 136,0 159,11 227,106 102,146 142,179 163,137 z m 2169,5 c 8,-13 19,-85 48,-303 8,-66 20,-135 25,-155 5,-19 10,-64 10,-100 0,-36 7,-94 15,-129 21,-89 23,-164 5,-185 -18,-22 -64,-16 -130,15 -25,13 -56,27 -70,33 -14,6 -59,29 -100,51 -41,23 -94,49 -118,58 -23,9 -59,28 -80,41 -21,13 -87,50 -147,82 -204,108 -325,193 -325,227 0,8 21,38 46,66 40,44 51,51 83,51 38,0 40,-1 110,-77 34,-37 77,-31 122,17 21,22 46,40 56,40 24,-1 46,-33 68,-100 29,-87 70,-173 94,-194 20,-19 22,-19 41,-1 11,10 34,59 50,109 16,50 39,120 51,156 11,36 28,88 36,115 19,62 83,195 94,195 4,0 11,-6 16,-12 z m 994,-329 c 56,-65 62,-76 55,-102 -6,-26 -61,-63 -221,-147 -66,-35 -147,-81 -179,-102 -33,-21 -66,-38 -74,-38 -7,0 -33,-9 -56,-20 -24,-11 -64,-25 -90,-32 -64,-17 -76,-4 -48,56 36,76 92,157 115,165 14,5 46,0 95,-17 93,-31 107,-25 154,65 20,37 49,79 63,93 15,14 42,49 61,78 45,69 66,69 125,1 z"
       id="path134"
       inkscape:connector-curvature="0"
       style="stroke-width:5.33756065" />
    <path
       d="m 7003,11365 c -62,-31 -73,-44 -113,-124 -29,-58 -32,-72 -27,-127 8,-110 81,-196 179,-214 90,-17 204,21 241,79 9,14 26,38 37,52 30,36 34,192 6,235 -76,114 -209,155 -323,99 z m 168,-59 c 59,-25 82,-58 87,-126 4,-51 0,-68 -23,-115 -43,-84 -64,-100 -140,-100 -59,0 -66,2 -99,34 -44,43 -71,108 -63,156 10,60 63,131 116,154 48,22 64,21 122,-3 z"
       id="path136"
       inkscape:connector-curvature="0"
       style="stroke-width:5.33756065" />
    <path
       d="m 7521,11224 c -22,-16 -111,-186 -111,-214 0,-6 -16,-40 -36,-76 -37,-67 -41,-100 -11,-118 26,-17 48,2 83,73 17,35 38,67 47,73 18,10 133,-17 143,-33 9,-15 52,-10 58,7 9,24 2,30 -73,64 -53,24 -72,39 -82,62 -15,36 3,76 37,84 23,6 98,-15 150,-43 36,-18 67,-11 62,14 -4,20 -112,82 -177,101 -23,8 -48,15 -55,18 -6,2 -22,-3 -35,-12 z"
       id="path138"
       inkscape:connector-curvature="0"
       style="stroke-width:5.33756065" />
    <path
       d="m 3890,10955 c -8,-8 -56,-34 -105,-58 -103,-50 -120,-66 -111,-102 7,-27 143,-259 184,-313 40,-53 57,-51 168,19 54,34 111,66 126,71 31,11 43,35 27,54 -18,22 -33,17 -128,-36 -49,-27 -98,-50 -110,-50 -30,0 -71,43 -71,74 0,27 29,52 125,109 36,21 46,32 43,50 -4,27 -34,33 -68,12 -59,-35 -127,-65 -146,-65 -29,0 -54,31 -54,67 0,29 25,63 47,63 6,0 25,18 43,39 17,22 40,43 50,46 22,7 27,35 7,35 -7,0 -19,-7 -27,-15 z"
       id="path140"
       inkscape:connector-curvature="0"
       style="stroke-width:5.33756065" />
    <path
       d="m 8114,10962 c -6,-4 -34,-37 -61,-73 -46,-61 -71,-98 -146,-216 -33,-52 -36,-93 -7,-93 22,0 52,29 82,80 29,49 59,80 76,80 16,0 12,-42 -15,-152 -15,-62 -15,-68 1,-92 30,-47 73,-30 200,78 28,23 52,36 61,32 18,-6 10,-27 -27,-76 -68,-89 -84,-141 -46,-148 24,-5 90,59 117,112 12,26 33,59 45,74 29,35 106,154 106,164 0,14 -44,48 -63,48 -18,0 -154,-92 -225,-152 -37,-31 -67,-36 -76,-12 -8,20 10,118 35,198 23,73 24,119 3,140 -16,17 -42,20 -60,8 z"
       id="path142"
       inkscape:connector-curvature="0"
       style="stroke-width:5.33756065" />
    <path
       d="m 3492,10717 c -28,-23 -74,-59 -104,-80 -108,-77 -141,-119 -102,-134 9,-3 26,5 43,21 19,18 38,26 62,26 32,0 41,-8 117,-102 132,-166 137,-171 158,-166 33,6 27,36 -23,99 -110,141 -153,205 -153,228 0,15 15,37 44,63 30,27 42,45 39,58 -9,33 -30,29 -81,-13 z"
       id="path144"
       inkscape:connector-curvature="0"
       style="stroke-width:5.33756065" />
    <path
       d="m 8587,10630 c -16,-12 -47,-48 -70,-79 -22,-31 -47,-62 -54,-69 -7,-7 -13,-17 -13,-22 0,-5 -25,-37 -55,-71 -43,-48 -54,-67 -49,-83 3,-12 9,-24 13,-27 87,-76 228,-170 246,-162 28,10 16,42 -25,69 -22,15 -40,30 -40,35 0,4 -20,20 -45,35 -39,22 -45,31 -45,58 0,34 43,86 71,86 8,0 50,-25 94,-55 86,-60 120,-67 120,-25 0,19 -12,33 -50,57 -71,46 -108,89 -99,116 8,26 43,67 58,67 13,0 111,-65 157,-104 35,-30 72,-31 77,-3 4,22 -59,84 -149,146 -77,53 -106,59 -142,31 z"
       id="path146"
       inkscape:connector-curvature="0"
       style="stroke-width:5.33756065" />
    <path
       d="m 3124,10416 c -9,-24 11,-50 101,-131 91,-83 125,-128 125,-167 0,-37 -51,-101 -93,-116 -35,-12 -39,-11 -89,22 -29,19 -66,47 -83,63 -136,132 -185,160 -185,110 0,-24 54,-85 170,-189 112,-101 203,-100 294,4 54,61 67,117 40,173 -21,44 -231,245 -256,245 -10,0 -21,-6 -24,-14 z"
       id="path148"
       inkscape:connector-curvature="0"
       style="stroke-width:5.33756065" />
    <path
       d="m 8845,10200 c -82,-77 -151,-148 -153,-159 -2,-14 21,-44 75,-99 95,-95 133,-111 214,-91 118,28 179,80 209,177 30,102 21,131 -73,229 -52,54 -87,83 -101,83 -13,-1 -79,-55 -171,-140 z m 224,15 c 88,-80 90,-144 7,-229 -63,-65 -115,-85 -174,-68 -47,14 -112,75 -112,104 0,25 200,228 225,228 8,0 32,-16 54,-35 z"
       id="path150"
       inkscape:connector-curvature="0"
       style="stroke-width:5.33756065" />
    <path
       d="m 2782,10114 c -12,-8 -29,-27 -37,-42 -7,-15 -48,-63 -89,-107 -46,-49 -75,-89 -76,-102 0,-36 40,-29 79,12 18,19 42,35 53,35 24,0 43,-14 228,-167 51,-42 93,-55 102,-30 9,22 -3,37 -52,70 -26,18 -85,67 -130,110 -97,91 -98,95 -26,192 12,16 1,45 -16,45 -8,0 -24,-7 -36,-16 z"
       id="path152"
       inkscape:connector-curvature="0"
       style="stroke-width:5.33756065" />
    <path
       d="m 9286,9926 c -26,-19 -65,-52 -85,-73 -20,-21 -62,-57 -93,-80 -71,-52 -96,-87 -78,-108 18,-22 42,-18 78,13 17,15 73,61 124,102 128,105 160,137 156,157 -6,31 -49,26 -102,-11 z"
       id="path154"
       inkscape:connector-curvature="0"
       style="stroke-width:5.33756065" />
    <path
       d="m 2485,9754 c -8,-9 -15,-19 -15,-24 0,-16 177,-154 273,-213 17,-10 36,-25 44,-33 20,-19 62,-18 70,3 7,18 -53,78 -137,136 -25,17 -76,54 -115,82 -84,62 -100,69 -120,49 z"
       id="path156"
       inkscape:connector-curvature="0"
       style="stroke-width:5.33756065" />
    <path
       d="m 9383,9750 c -43,-10 -126,-64 -162,-106 -29,-33 -51,-88 -51,-130 0,-33 38,-111 68,-140 61,-58 180,-85 217,-48 32,32 15,49 -55,54 -79,6 -107,21 -126,65 -34,83 -4,166 82,221 47,30 67,37 111,38 47,0 56,-3 87,-33 48,-47 62,-84 48,-125 -14,-38 -15,-73 -4,-80 5,-3 18,-3 30,0 26,7 42,52 42,119 0,100 -86,176 -197,174 -32,-1 -72,-4 -90,-9 z"
       id="path158"
       inkscape:connector-curvature="0"
       style="stroke-width:5.33756065" />
    <path
       d="m 2366,9607 c -13,-14 -38,-52 -55,-85 -17,-33 -35,-63 -40,-67 -21,-12 -71,-97 -71,-120 0,-54 57,-37 85,26 26,57 45,58 120,5 36,-25 93,-59 126,-75 33,-17 69,-37 82,-46 32,-22 67,-20 67,5 0,23 -42,56 -170,130 -130,76 -148,106 -103,178 16,26 14,63 -4,69 -7,3 -23,-7 -37,-20 z"
       id="path160"
       inkscape:connector-curvature="0"
       style="stroke-width:5.33756065" />
    <path
       d="m 9725,9259 c -44,-4 -98,-12 -120,-18 -22,-6 -62,-11 -90,-11 -58,0 -121,-16 -131,-32 -14,-22 25,-36 85,-31 57,5 59,5 83,-28 34,-45 58,-94 58,-116 0,-17 -17,-48 -55,-99 -14,-19 -14,-23 5,-45 l 20,-24 36,40 c 97,109 236,279 250,306 14,28 14,32 -2,50 -9,10 -27,18 -38,17 -12,0 -57,-4 -101,-9 z m 24,-63 c 15,-17 5,-40 -32,-74 -35,-33 -60,-25 -72,22 -8,33 -6,40 10,52 25,18 79,18 94,0 z"
       id="path162"
       inkscape:connector-curvature="0"
       style="stroke-width:5.33756065" />
    <path
       d="m 2124,9171 c -39,-24 -100,-98 -109,-132 -9,-37 35,-130 76,-162 71,-54 79,-51 190,62 104,105 130,119 162,84 24,-28 32,-71 15,-91 -8,-9 -21,-32 -28,-50 -14,-36 -54,-62 -94,-62 -35,0 -59,-26 -46,-51 8,-13 21,-19 46,-19 81,0 160,73 190,177 14,49 14,55 -5,97 -23,52 -77,86 -139,86 -42,0 -82,-31 -150,-118 -48,-61 -67,-68 -97,-38 -52,52 -17,144 62,163 44,10 63,34 44,57 -18,22 -79,20 -117,-3 z"
       id="path164"
       inkscape:connector-curvature="0"
       style="stroke-width:5.33756065" />
    <path
       d="m 9940,8933 c -8,-3 -53,-23 -99,-44 -46,-22 -95,-42 -110,-45 -58,-13 -113,-38 -123,-57 -8,-16 -5,-32 15,-76 14,-31 38,-84 53,-118 26,-59 45,-80 65,-67 15,9 11,35 -18,114 -37,107 -33,117 69,164 212,97 228,106 222,121 -6,15 -44,19 -74,8 z"
       id="path166"
       inkscape:connector-curvature="0"
       style="stroke-width:5.33756065" />
    <path
       d="m 1920,8776 c -21,-27 4,-47 115,-92 60,-24 113,-48 119,-54 16,-17 -13,-34 -81,-49 -32,-7 -81,-19 -109,-27 -28,-8 -61,-14 -73,-14 -35,0 -88,-29 -94,-51 -5,-20 16,-49 36,-49 7,0 53,-17 102,-39 50,-21 110,-47 135,-56 25,-9 60,-23 78,-31 59,-25 90,-15 77,25 -4,13 -40,34 -106,61 -55,24 -107,49 -114,57 -18,18 -9,42 19,47 18,4 188,42 291,65 23,6 31,13 33,34 3,24 -2,30 -45,47 -26,12 -70,32 -98,45 -96,46 -224,95 -248,95 -14,0 -30,-7 -37,-14 z"
       id="path168"
       inkscape:connector-curvature="0"
       style="stroke-width:5.33756065" />
    <path
       d="m 10100,8352 c -51,-28 -60,-53 -60,-174 0,-97 -2,-109 -22,-128 -12,-11 -27,-20 -33,-20 -24,0 -54,33 -69,77 -24,70 -21,116 10,153 25,29 26,33 10,48 -15,15 -18,15 -44,0 -37,-23 -72,-92 -72,-142 1,-66 53,-165 103,-193 30,-17 102,-16 136,2 19,9 35,32 50,68 19,46 21,65 15,130 -4,41 -4,87 0,102 6,24 11,26 48,23 31,-2 46,-10 62,-31 29,-39 28,-106 -2,-147 -44,-59 -7,-93 47,-43 23,21 34,43 43,85 11,54 10,60 -15,110 -34,65 -63,87 -125,94 -35,4 -56,0 -82,-14 z"
       id="path170"
       inkscape:connector-curvature="0"
       style="stroke-width:5.33756065" />
    <path
       d="m 1741,8296 c -19,-23 3,-54 46,-62 19,-4 59,-15 87,-26 28,-11 78,-27 111,-37 161,-49 198,-52 203,-14 4,25 -25,41 -103,61 -64,16 -187,53 -225,68 -60,23 -105,27 -119,10 z"
       id="path172"
       inkscape:connector-curvature="0"
       style="stroke-width:5.33756065" />
    <path
       d="m 1702,7893 c -44,-15 -77,-55 -109,-130 -12,-30 -12,-40 3,-88 22,-68 70,-106 142,-113 48,-4 49,-4 90,48 23,29 42,57 42,63 0,6 9,30 21,54 50,102 139,84 139,-28 0,-56 -30,-103 -81,-123 -45,-18 -59,-41 -36,-63 13,-13 21,-13 53,-3 83,28 126,85 139,187 5,40 2,61 -13,96 -24,54 -62,77 -127,77 -77,0 -100,-19 -150,-125 -24,-51 -52,-98 -61,-103 -25,-14 -71,5 -78,31 -19,70 5,121 74,155 40,19 50,50 24,69 -21,15 -17,16 -72,-4 z"
       id="path174"
       inkscape:connector-curvature="0"
       style="stroke-width:5.33756065" />
    <path
       d="m 10125,7896 c -11,-9 -30,-16 -43,-16 -13,0 -44,-14 -69,-31 -50,-34 -93,-111 -93,-165 0,-51 28,-128 57,-156 54,-52 138,-73 164,-42 17,20 3,44 -37,63 -45,21 -72,50 -90,97 -15,40 -15,46 1,89 22,57 48,78 119,95 62,15 116,4 162,-33 58,-45 69,-133 25,-195 -40,-57 -18,-96 39,-67 39,20 61,65 67,135 5,47 1,67 -19,112 -32,69 -65,92 -153,106 -38,6 -79,14 -90,17 -11,3 -29,-1 -40,-9 z"
       id="path176"
       inkscape:connector-curvature="0"
       style="stroke-width:5.33756065" />
    <path
       d="m 1630,7441 c -79,-14 -31,-65 54,-59 34,2 42,7 44,25 3,17 -3,26 -23,33 -14,5 -29,9 -33,9 -4,-1 -23,-4 -42,-8 z"
       id="path178"
       inkscape:connector-curvature="0"
       style="stroke-width:5.33756065" />
    <path
       d="m 9991,7363 c -26,-17 -27,-39 -3,-51 18,-10 260,-7 355,3 65,8 95,28 76,51 -18,21 -398,19 -428,-3 z"
       id="path180"
       inkscape:connector-curvature="0"
       style="stroke-width:5.33756065" />
    <path
       d="m 1577,7302 c -26,-28 -19,-73 13,-89 14,-7 57,-26 95,-44 171,-77 175,-79 175,-99 0,-10 -4,-22 -10,-25 -10,-6 -118,-37 -215,-61 -71,-18 -95,-37 -95,-75 0,-47 27,-55 249,-73 214,-17 231,-15 231,25 0,26 -31,39 -94,39 -63,0 -106,13 -106,33 0,16 62,47 93,47 13,0 32,7 43,15 10,8 26,15 35,15 9,0 27,8 40,19 22,17 22,20 7,42 -9,13 -41,34 -72,46 -76,31 -136,70 -136,89 0,13 15,15 98,13 106,-3 122,2 122,32 0,34 -52,46 -225,53 -88,3 -176,9 -195,12 -27,5 -39,1 -53,-14 z"
       id="path182"
       inkscape:connector-curvature="0"
       style="stroke-width:5.33756065" />
    <path
       d="m 10055,7191 -70,-6 -3,-150 c -2,-116 1,-155 11,-169 33,-45 57,15 57,140 0,57 35,108 77,112 47,5 63,-25 63,-120 0,-64 3,-81 20,-98 21,-21 46,-18 54,8 3,10 8,59 12,110 6,85 9,95 30,104 28,13 70,4 78,-17 3,-9 9,-59 12,-113 7,-107 15,-127 45,-111 17,9 19,23 19,154 0,132 -2,145 -19,155 -20,10 -260,11 -386,1 z"
       id="path184"
       inkscape:connector-curvature="0"
       style="stroke-width:5.33756065" />
    <path
       d="m 9993,6759 c -7,-7 -13,-21 -13,-30 0,-25 148,-73 201,-66 22,3 45,0 55,-7 14,-11 15,-15 3,-35 -8,-12 -25,-24 -39,-27 -14,-3 -32,-9 -40,-15 -8,-5 -21,-11 -27,-14 -7,-3 -19,-7 -25,-10 -7,-3 -20,-9 -28,-15 -8,-5 -43,-26 -77,-45 -50,-29 -63,-41 -63,-60 0,-33 31,-48 115,-56 39,-4 118,-13 178,-19 118,-14 157,-7 157,29 0,21 -4,23 -135,42 -157,23 -154,38 30,130 113,56 147,78 151,96 11,43 1,49 -127,67 -68,9 -140,21 -159,26 -70,18 -144,22 -157,9 z"
       id="path186"
       inkscape:connector-curvature="0"
       style="stroke-width:5.33756065" />
    <path
       d="m 1975,6746 c -11,-7 -33,-16 -49,-20 -17,-4 -41,-15 -55,-25 -27,-19 -124,-66 -201,-97 -64,-25 -82,-43 -78,-77 2,-17 10,-33 18,-38 31,-16 119,-41 225,-65 125,-28 183,-50 189,-73 5,-17 34,-140 42,-179 6,-30 -12,-62 -36,-62 -10,0 -34,9 -52,19 -18,11 -92,47 -165,81 -110,51 -135,59 -152,50 -23,-12 -26,-34 -12,-107 6,-26 15,-75 22,-108 16,-83 35,-117 62,-113 25,3 26,19 12,139 -7,56 -5,67 9,72 10,4 76,-24 173,-73 115,-59 166,-80 195,-80 24,0 41,5 44,14 9,24 -33,274 -64,376 -17,54 -18,55 -75,73 -64,21 -75,34 -87,110 -10,63 -2,81 50,107 39,20 60,56 45,79 -9,15 -37,14 -60,-3 z m -136,-166 c 42,-22 31,-80 -15,-80 -29,0 -84,26 -84,40 0,5 17,18 38,29 45,24 39,23 61,11 z"
       id="path188"
       inkscape:connector-curvature="0"
       style="stroke-width:5.33756065" />
    <path
       d="m 10002,6265 c -51,-16 -104,-50 -123,-79 -7,-12 -15,-61 -17,-116 l -4,-95 34,-31 c 49,-44 69,-54 90,-43 26,14 22,39 -11,74 -33,34 -51,89 -44,129 3,14 23,42 46,62 l 40,37 71,-7 c 151,-14 196,-47 196,-145 0,-68 -20,-100 -82,-132 -30,-15 -39,-25 -36,-42 3,-23 26,-32 61,-23 32,8 105,81 122,123 20,48 19,119 -4,169 -25,55 -119,112 -206,125 -75,11 -81,11 -133,-6 z"
       id="path190"
       inkscape:connector-curvature="0"
       style="stroke-width:5.33756065" />
    <path
       d="m 2040,5884 c -47,-14 -116,-33 -155,-43 -113,-31 -125,-37 -125,-66 0,-34 23,-41 68,-22 20,9 55,19 77,23 22,3 63,12 90,19 28,8 81,22 118,32 73,19 98,42 76,69 -16,19 -49,17 -149,-12 z"
       id="path192"
       inkscape:connector-curvature="0"
       style="stroke-width:5.33756065" />
    <path
       d="m 9783,5804 c -13,-13 -23,-29 -23,-36 0,-7 -14,-56 -31,-109 -36,-108 -34,-153 3,-147 17,2 26,18 44,73 13,39 23,77 23,86 1,9 11,29 23,44 18,24 26,27 60,22 21,-3 45,-11 53,-17 22,-18 18,-68 -10,-140 -31,-78 -31,-97 -3,-106 24,-7 58,25 58,56 0,25 45,123 64,139 12,10 23,10 51,1 39,-13 58,-44 44,-72 -5,-9 -9,-27 -9,-40 0,-13 -9,-49 -20,-81 -24,-68 -25,-83 -4,-91 22,-9 54,11 54,34 0,10 12,50 26,87 36,95 48,146 41,175 -7,27 -51,46 -187,83 -36,9 -76,22 -90,27 -14,6 -52,16 -84,23 -57,12 -60,11 -83,-11 z"
       id="path194"
       inkscape:connector-curvature="0"
       style="stroke-width:5.33756065" />
    <path
       d="m 2160,5744 c -57,-25 -143,-54 -160,-54 -8,0 -57,-20 -108,-45 -69,-34 -92,-51 -92,-65 0,-30 39,-34 101,-11 111,41 169,43 169,6 0,-12 -116,-191 -146,-226 -34,-38 0,-79 65,-79 28,0 65,11 109,33 37,19 85,39 107,46 22,7 49,16 60,21 11,5 37,16 58,24 29,12 37,20 37,41 0,35 -23,41 -73,20 -152,-63 -208,-77 -222,-54 -8,11 21,54 90,139 102,123 123,171 89,204 -19,20 -39,20 -84,0 z"
       id="path196"
       inkscape:connector-curvature="0"
       style="stroke-width:5.33756065" />
    <path
       d="m 9624,5354 c -17,-8 -46,-31 -65,-50 -28,-29 -34,-44 -40,-102 -13,-109 14,-154 108,-182 56,-17 105,0 140,48 54,75 96,112 125,112 34,0 52,-30 44,-75 -10,-51 -38,-78 -92,-90 -84,-17 -70,-75 17,-75 42,0 55,5 88,35 43,39 91,130 91,173 0,34 -27,75 -71,108 -29,22 -42,25 -84,21 -45,-4 -54,-9 -90,-53 -77,-93 -115,-125 -144,-122 -24,3 -26,7 -29,61 -4,77 11,100 85,124 60,20 76,41 53,68 -16,20 -96,19 -136,-1 z"
       id="path198"
       inkscape:connector-curvature="0"
       style="stroke-width:5.33756065" />
    <path
       d="m 8943,4450 c -29,-27 -53,-57 -53,-65 0,-9 15,-30 34,-48 61,-58 69,-90 31,-131 -50,-54 -51,-63 -3,-107 24,-22 54,-42 66,-46 31,-7 72,23 95,70 9,21 22,37 28,37 6,0 39,-20 73,-45 84,-59 110,-59 165,0 22,24 41,51 41,59 0,9 -18,33 -40,55 -48,47 -52,81 -14,116 15,14 31,25 36,25 5,0 8,15 6,33 -2,26 -12,38 -52,65 -64,43 -93,41 -152,-8 -27,-22 -53,-40 -59,-40 -14,0 -77,39 -98,61 -27,29 -47,23 -104,-31 z"
       id="path200"
       inkscape:connector-curvature="0"
       style="stroke-width:5.33756065" />
    <path
       d="m 2977,4112 c -26,-26 -47,-57 -47,-68 0,-11 16,-36 36,-55 62,-59 63,-101 4,-154 -47,-42 -46,-53 6,-106 27,-27 57,-49 68,-49 11,0 39,19 63,42 48,47 60,46 126,-12 25,-22 42,-30 56,-25 21,6 81,93 81,116 0,8 -14,32 -30,53 -17,22 -30,50 -30,63 0,30 21,72 49,97 30,27 26,47 -20,100 -51,58 -75,59 -118,6 -20,-25 -40,-40 -54,-40 -14,0 -39,17 -62,40 -21,22 -48,40 -60,40 -12,0 -42,-21 -68,-48 z"
       id="path202"
       inkscape:connector-curvature="0"
       style="stroke-width:5.33756065" />
    <path
       d="m 7880,3530 c -46,-10 -160,-71 -174,-93 -8,-13 -2,-32 27,-89 84,-161 164,-268 201,-268 28,0 176,83 211,118 66,66 70,148 10,242 -38,60 -87,87 -170,93 -38,2 -86,1 -105,-3 z m 134,-64 c 44,-18 97,-96 103,-151 5,-36 1,-47 -27,-79 -39,-44 -78,-66 -117,-66 -23,1 -35,12 -72,68 -24,37 -53,80 -64,97 -19,27 -28,87 -15,100 10,10 113,44 136,45 12,0 38,-6 56,-14 z"
       id="path204"
       inkscape:connector-curvature="0"
       style="stroke-width:5.33756065" />
    <path
       d="m 4453,3382 c -12,-8 -53,-96 -53,-114 0,-6 -19,-51 -41,-102 -59,-130 -59,-132 -46,-151 21,-27 46,-7 82,65 19,37 40,70 48,73 16,6 84,-9 147,-32 43,-16 45,-19 48,-60 2,-27 -3,-52 -13,-67 -24,-37 -16,-78 16,-82 27,-3 30,1 68,92 12,27 21,55 21,64 0,8 13,36 29,61 16,25 32,56 35,68 6,18 34,40 41,31 1,-2 23,-51 49,-110 l 48,-107 -16,-70 c -16,-71 -14,-101 9,-101 19,0 31,19 54,85 22,63 42,86 154,171 99,76 125,51 88,-84 -27,-99 -32,-215 -11,-236 21,-21 187,-38 251,-26 27,5 60,17 75,26 32,22 72,99 84,166 9,47 8,58 -15,104 -41,83 -105,118 -233,128 -52,4 -111,14 -133,23 -53,21 -81,12 -153,-52 -84,-74 -105,-76 -130,-12 -48,114 -55,126 -83,132 -16,4 -40,13 -56,21 -40,22 -63,9 -95,-54 -27,-53 -32,-57 -67,-60 -70,-6 -175,49 -175,91 0,11 5,36 12,54 17,46 -7,85 -39,65 z m 1000,-276 c 18,-7 46,-28 62,-45 27,-29 30,-38 29,-95 -2,-97 -31,-139 -116,-171 -38,-14 -53,-15 -81,-6 -19,7 -42,19 -50,29 -35,39 -15,234 29,284 21,22 80,24 127,4 z"
       id="path206"
       inkscape:connector-curvature="0"
       style="stroke-width:5.33756065" />
    <path
       d="m 7461,3363 c -21,-17 -22,-24 -19,-212 3,-169 5,-195 20,-204 24,-16 54,14 62,62 7,43 22,60 75,78 59,21 83,16 135,-27 55,-45 66,-48 91,-20 15,17 16,22 4,37 -37,48 -73,86 -179,190 -122,119 -146,131 -189,96 z m 119,-153 c 8,-14 8,-26 0,-40 -19,-35 -58,0 -45,41 8,25 32,24 45,-1 z"
       id="path208"
       inkscape:connector-curvature="0"
       style="stroke-width:5.33756065" />
    <path
       d="m 7050,3256 c -113,-34 -128,-48 -111,-109 6,-23 18,-58 25,-77 29,-76 46,-136 46,-162 0,-14 12,-41 27,-58 22,-27 31,-31 57,-26 17,4 51,11 76,16 152,30 190,56 197,137 5,44 2,52 -31,92 -28,33 -36,52 -36,82 0,46 -22,94 -47,104 -36,14 -158,15 -203,1 z m 134,-57 c 52,-24 38,-71 -29,-96 -72,-27 -91,-27 -109,-2 -34,49 -15,87 52,100 55,10 59,10 86,-2 z m 84,-169 c 21,-13 32,-27 32,-43 0,-31 -48,-75 -90,-83 -19,-4 -41,-11 -48,-17 -23,-18 -59,11 -73,60 -15,56 -3,70 73,88 71,18 68,18 106,-5 z"
       id="path210"
       inkscape:connector-curvature="0"
       style="stroke-width:5.33756065" />
    <path
       d="m 6671,3148 c -27,-61 -41,-105 -57,-168 -7,-30 -20,-82 -28,-115 -20,-78 -20,-101 1,-110 22,-8 58,34 67,76 7,35 25,45 105,53 l 64,6 41,-45 c 85,-92 128,-30 50,72 -13,17 -24,38 -24,45 0,7 -33,60 -73,118 -58,85 -78,106 -99,108 -24,3 -30,-2 -47,-40 z m 88,-124 c 27,-34 26,-49 -1,-68 -30,-21 -48,-4 -48,44 0,57 16,65 49,24 z"
       id="path212"
       inkscape:connector-curvature="0"
       style="stroke-width:5.33756065" />
    <path
       d="m 6130,3127 c -28,-14 -27,1 -15,-227 8,-147 15,-180 39,-180 25,0 39,30 45,93 7,72 25,87 106,86 63,0 91,-15 119,-65 24,-43 55,-54 76,-29 12,14 11,24 -3,66 -14,38 -16,65 -11,128 7,79 7,80 -24,110 l -30,31 h -139 c -92,0 -146,-5 -163,-13 z m 257,-48 c 19,-7 23,-16 23,-47 0,-54 -26,-75 -100,-80 -85,-6 -110,12 -110,77 0,39 4,50 18,54 31,8 145,5 169,-4 z"
       id="path214"
       inkscape:connector-curvature="0"
       style="stroke-width:5.33756065" />
    <path
       d="m 5694,3106 c -12,-19 -16,-51 -17,-128 -2,-291 -10,-278 171,-278 96,0 133,4 148,14 34,25 4,37 -97,38 -119,1 -139,11 -139,72 0,25 6,48 14,55 9,7 49,10 111,9 83,-3 99,0 108,14 6,9 9,19 6,22 -3,3 -47,8 -99,11 -112,6 -140,20 -140,69 0,56 23,67 148,70 123,4 141,9 118,35 -13,14 -39,17 -165,19 l -150,3 z"
       id="path216"
       inkscape:connector-curvature="0"
       style="stroke-width:5.33756065" />
    <path
       d="m 5920,8427 c -19,-5 -52,-15 -73,-23 -20,-8 -52,-14 -71,-14 -73,0 -329,-121 -451,-213 -103,-79 -289,-265 -341,-342 -48,-71 -105,-176 -124,-225 -7,-19 -19,-42 -25,-50 -11,-14 -42,-127 -71,-255 -36,-167 -26,-374 26,-546 17,-53 30,-105 30,-116 0,-10 4,-23 9,-29 5,-5 23,-43 40,-84 50,-118 151,-263 267,-382 67,-69 251,-218 269,-218 4,0 57,-24 119,-54 224,-108 287,-121 576,-121 239,0 288,6 415,52 129,47 203,82 280,132 33,22 85,54 115,72 64,38 199,173 276,275 108,143 234,403 234,484 0,14 14,74 30,134 30,107 31,109 16,180 -8,39 -17,132 -19,207 -4,113 -10,149 -32,215 -34,99 -110,260 -141,297 -13,16 -24,33 -24,38 0,17 -164,201 -230,258 -68,59 -258,191 -275,191 -5,0 -27,9 -48,20 -20,11 -43,20 -51,20 -7,0 -39,11 -69,25 -68,30 -158,53 -252,66 -103,13 -365,18 -405,6 z m 415,-207 c 39,-6 90,-16 114,-21 62,-14 292,-114 354,-153 87,-57 255,-233 276,-291 2,-5 25,-53 52,-107 97,-192 121,-301 117,-518 -4,-192 -28,-297 -96,-435 -22,-44 -43,-96 -47,-115 -18,-82 -164,-276 -273,-363 -134,-107 -312,-208 -399,-227 -44,-10 -49,-9 -65,11 -39,48 -15,177 45,241 24,26 38,30 139,43 26,3 54,12 61,19 7,7 22,18 35,25 26,14 57,71 66,122 4,22 23,55 46,82 38,43 40,48 40,111 0,65 0,66 38,90 80,51 108,102 86,156 -8,19 -21,42 -29,50 -8,9 -40,65 -70,125 l -55,110 1,116 c 1,109 -1,121 -31,193 -54,129 -178,262 -295,314 -27,13 -63,30 -79,38 -16,8 -90,24 -165,35 -142,21 -222,19 -273,-7 -15,-8 -38,-14 -51,-14 -36,0 -244,-97 -302,-140 -62,-47 -172,-153 -206,-200 -27,-36 -73,-135 -128,-272 -27,-66 -31,-89 -31,-169 0,-82 3,-100 32,-163 47,-104 82,-152 196,-271 56,-58 112,-125 124,-148 33,-65 58,-181 65,-307 5,-100 4,-117 -11,-129 -60,-50 -299,138 -464,362 -39,54 -132,232 -132,254 0,9 -11,48 -24,87 -37,108 -52,275 -38,417 7,64 21,151 32,194 25,97 132,315 168,342 15,11 41,40 57,63 17,24 56,68 89,99 32,31 65,70 75,87 20,38 84,95 136,122 159,82 280,126 389,141 37,5 70,12 72,14 8,8 293,-2 359,-13 z m -364,-631 c 19,-7 41,-18 49,-24 10,-9 43,-12 100,-11 132,4 205,-8 245,-39 50,-37 66,-74 59,-129 -6,-41 -4,-49 25,-81 37,-43 39,-77 7,-110 -32,-32 -67,-40 -129,-27 -61,11 -164,1 -220,-23 -82,-34 -162,-142 -151,-201 3,-17 0,-50 -6,-73 -6,-24 -16,-122 -22,-219 -5,-98 -12,-202 -15,-232 -2,-30 -8,-146 -11,-257 -6,-170 -10,-205 -24,-219 -23,-23 -59,-12 -81,25 -15,26 -17,60 -14,368 3,267 1,352 -10,403 -8,36 -17,75 -19,88 -5,27 -74,79 -124,92 -65,18 -115,93 -134,207 -13,72 -13,82 5,133 14,39 31,65 60,89 22,19 58,58 80,88 24,32 55,61 77,71 20,9 44,22 54,30 21,17 128,61 149,62 9,0 31,-5 50,-11 z"
       id="path218"
       inkscape:connector-curvature="0"
       style="stroke-width:5.33756065" />
    <path
       d="m 5725,7193 c -29,-7 -62,-41 -70,-70 -9,-39 12,-90 49,-113 43,-26 85,-25 127,3 31,21 34,28 37,78 2,46 -1,58 -20,76 -24,22 -87,36 -123,26 z"
       id="path220"
       inkscape:connector-curvature="0"
       style="stroke-width:5.33756065" />
    <path
       d="m 930,4562 c 0,-4 -7,-39 -16,-77 -9,-39 -20,-146 -24,-240 -9,-194 -34,-426 -56,-502 -7,-28 -14,-67 -14,-85 0,-63 -18,-70 -176,-65 -143,5 -200,13 -474,67 -105,21 -140,23 -146,7 -5,-14 14,-42 208,-303 43,-58 87,-123 99,-147 12,-23 35,-61 50,-84 16,-23 29,-46 29,-50 0,-5 16,-25 36,-44 20,-18 46,-50 59,-69 12,-19 56,-72 96,-117 41,-45 94,-107 119,-139 25,-31 69,-84 99,-118 29,-34 65,-77 80,-96 14,-19 44,-50 66,-69 22,-20 60,-55 85,-80 44,-42 103,-81 126,-81 6,0 24,-7 41,-15 116,-58 338,-54 483,9 46,20 91,36 99,35 21,0 60,-28 162,-114 104,-88 196,-158 229,-175 14,-7 39,-25 55,-39 17,-15 55,-43 85,-61 30,-19 80,-57 110,-85 30,-28 118,-88 195,-134 77,-46 149,-91 160,-101 22,-19 409,-220 424,-220 6,0 53,-20 105,-45 53,-25 103,-45 111,-45 8,0 54,-20 101,-45 46,-25 93,-45 104,-45 10,0 36,-10 56,-22 20,-12 61,-25 91,-29 30,-4 63,-15 72,-23 10,-9 30,-16 45,-16 15,0 44,-9 66,-20 22,-11 56,-20 76,-20 20,0 46,-8 61,-19 13,-11 50,-25 81,-32 31,-6 70,-17 87,-25 52,-24 263,-74 310,-74 25,0 59,-7 75,-15 16,-8 64,-20 107,-26 43,-5 89,-15 102,-20 40,-17 180,-41 286,-49 55,-5 123,-13 150,-19 121,-25 256,-32 645,-33 422,-2 451,0 572,39 39,12 55,12 84,3 41,-14 169,0 237,26 20,8 62,14 91,14 29,0 70,7 89,15 20,8 66,15 102,15 37,0 82,7 103,16 20,8 82,22 136,30 54,8 107,19 117,24 10,6 35,10 57,10 22,0 57,7 78,16 20,9 58,19 83,24 25,4 78,20 116,34 39,15 120,42 180,60 147,45 280,92 330,115 22,10 84,37 137,60 53,24 102,49 108,56 16,19 -13,85 -37,85 -11,0 -23,-4 -29,-9 -8,-8 -38,-19 -179,-68 -22,-7 -49,-17 -60,-22 -11,-5 -38,-15 -60,-24 -22,-8 -74,-28 -115,-45 -41,-16 -102,-38 -135,-48 -33,-10 -69,-24 -80,-30 -11,-7 -37,-15 -57,-18 -20,-4 -63,-15 -95,-25 -32,-10 -94,-26 -138,-36 -44,-9 -106,-26 -138,-36 -31,-11 -67,-19 -80,-19 -12,0 -44,-8 -72,-19 -27,-10 -82,-21 -122,-25 -39,-3 -83,-10 -96,-15 -14,-6 -72,-15 -129,-21 -56,-6 -121,-15 -143,-21 -22,-5 -108,-13 -192,-18 -84,-6 -162,-15 -173,-21 -32,-17 -538,-19 -800,-3 -124,8 -240,11 -257,8 -18,-3 -41,-1 -51,4 -28,15 -143,32 -272,41 -66,4 -134,15 -160,25 -25,9 -88,20 -140,25 -65,5 -108,14 -135,29 -21,12 -58,21 -80,21 -23,0 -70,11 -105,25 -35,14 -80,25 -99,25 -20,0 -49,7 -66,16 -16,9 -55,18 -85,21 -30,3 -77,16 -103,29 -27,13 -56,24 -66,24 -9,0 -26,7 -37,15 -10,8 -36,15 -57,15 -37,0 -110,30 -122,50 -3,5 -19,10 -34,10 -15,0 -36,7 -47,15 -10,8 -26,15 -35,15 -16,0 -89,31 -119,50 -17,11 -98,47 -180,80 -77,31 -171,78 -190,95 -9,8 -31,21 -50,29 -19,8 -48,26 -64,39 l -29,24 47,38 c 52,44 66,79 66,168 0,53 -3,61 -39,100 -66,71 -86,150 -49,194 16,20 77,15 114,-8 31,-19 34,-25 34,-71 0,-42 3,-49 17,-46 24,4 46,54 39,83 -4,14 -23,42 -44,64 -33,34 -44,39 -98,46 -88,10 -137,-19 -163,-94 -24,-73 -17,-97 57,-175 80,-85 106,-128 98,-161 -8,-30 -40,-40 -102,-30 -58,8 -79,30 -93,94 -11,50 -37,109 -63,142 -21,26 -54,39 -100,39 -48,0 -82,-27 -106,-82 -13,-32 -46,-37 -78,-13 -10,8 -38,24 -61,34 -23,11 -68,39 -100,62 -68,51 -156,113 -233,166 -30,20 -77,58 -105,83 -27,26 -79,69 -115,96 -93,70 -151,122 -267,237 -116,115 -123,133 -74,189 15,18 91,119 169,223 77,105 166,220 196,257 31,36 77,94 102,127 48,64 80,81 117,63 19,-9 142,-119 273,-243 22,-21 44,-39 48,-39 4,0 47,-35 94,-78 173,-157 461,-358 612,-428 41,-19 84,-39 94,-45 11,-6 51,-27 90,-46 39,-20 87,-49 107,-64 20,-16 41,-29 45,-29 5,0 85,-39 178,-85 94,-47 176,-85 183,-85 8,0 58,-19 111,-42 53,-22 138,-53 187,-69 133,-41 278,-89 298,-100 10,-6 46,-14 80,-18 34,-5 98,-18 141,-30 44,-11 91,-21 106,-21 15,0 50,-6 76,-14 98,-29 193,-46 252,-46 34,0 73,-5 89,-11 31,-12 136,-23 383,-39 182,-12 710,-5 775,10 22,6 85,15 140,21 55,5 138,14 185,19 47,5 117,17 155,26 39,9 93,20 120,26 28,5 68,13 90,19 65,15 266,60 320,71 28,5 55,14 60,18 6,5 29,13 50,19 86,21 171,48 192,59 12,7 37,12 55,12 18,0 49,10 68,23 45,30 133,67 159,67 11,0 33,11 49,25 17,14 57,37 89,51 32,14 88,41 125,60 39,19 82,34 102,34 19,0 38,5 41,10 4,6 24,19 45,30 21,11 53,33 71,49 18,16 73,51 123,77 50,25 102,56 116,68 14,13 60,40 104,62 43,21 112,68 153,104 42,36 85,72 97,80 41,28 192,154 253,212 34,32 66,58 71,58 5,0 22,18 38,41 15,22 46,50 68,61 23,11 71,52 108,90 90,95 96,94 248,-55 64,-61 142,-142 173,-179 32,-37 121,-131 197,-210 146,-149 165,-179 137,-221 -8,-12 -45,-49 -82,-82 -37,-33 -97,-88 -134,-122 -36,-34 -79,-73 -96,-85 -16,-12 -48,-41 -70,-63 -22,-22 -78,-69 -125,-105 -47,-35 -105,-83 -130,-105 -25,-23 -65,-55 -90,-71 -87,-58 -155,-107 -178,-128 -22,-20 -63,-45 -154,-95 -20,-11 -64,-40 -97,-64 -33,-25 -82,-55 -108,-68 -26,-12 -61,-32 -78,-43 -39,-28 -177,-106 -185,-106 -4,0 -18,-8 -31,-18 -13,-10 -44,-26 -69,-37 -63,-27 -100,-54 -100,-73 0,-20 47,-62 70,-62 10,0 23,7 30,15 7,8 20,15 29,15 9,0 21,4 27,8 5,5 47,26 94,48 47,21 117,57 155,80 39,22 78,43 89,47 24,10 172,107 270,179 44,32 83,58 86,58 11,0 200,128 250,169 25,20 79,61 120,91 41,29 99,75 129,102 55,50 118,88 146,88 8,0 39,-13 68,-29 96,-54 284,-83 395,-61 130,27 178,70 540,484 67,78 133,152 146,166 94,101 229,297 372,540 41,69 78,132 84,140 44,68 70,121 65,130 -9,14 -36,12 -54,-3 -30,-26 -101,-47 -159,-47 -34,-1 -65,-6 -76,-15 -13,-10 -44,-15 -85,-16 -36,0 -91,-5 -121,-10 -106,-17 -261,-28 -284,-19 -13,5 -26,16 -29,25 -4,9 -9,107 -12,218 -3,111 -10,229 -15,262 -5,33 -14,101 -20,150 -23,187 -42,265 -64,265 -15,0 -56,-42 -56,-56 0,-5 -13,-25 -30,-44 -16,-19 -29,-41 -30,-49 0,-8 -13,-36 -30,-63 -16,-26 -30,-51 -30,-54 0,-9 -62,-97 -85,-121 -12,-13 -40,-49 -62,-80 -21,-32 -66,-96 -98,-143 -33,-47 -88,-128 -123,-180 -34,-52 -86,-119 -115,-149 -29,-29 -76,-78 -105,-108 -37,-39 -59,-53 -74,-51 -13,2 -60,45 -110,102 -49,54 -107,113 -129,132 -62,52 -84,47 -162,-33 -36,-38 -73,-78 -84,-90 -10,-11 -49,-48 -88,-80 -38,-33 -99,-88 -133,-121 -35,-34 -78,-72 -95,-84 -18,-12 -60,-46 -94,-75 -33,-29 -65,-53 -70,-53 -6,0 -18,-10 -29,-21 -10,-12 -42,-36 -69,-54 -28,-18 -70,-49 -95,-68 -110,-87 -101,-82 -338,-228 -112,-70 -116,-72 -212,-120 -73,-36 -80,-40 -130,-61 -46,-20 -161,-73 -232,-109 -32,-16 -63,-29 -68,-29 -6,0 -53,-20 -104,-45 -52,-25 -100,-45 -108,-45 -8,0 -18,-4 -24,-9 -5,-6 -27,-14 -49,-20 -22,-5 -79,-23 -126,-39 -47,-17 -112,-35 -144,-41 -32,-6 -63,-15 -69,-20 -6,-5 -49,-19 -96,-31 -47,-12 -116,-30 -155,-40 -38,-10 -90,-21 -115,-25 -25,-4 -67,-13 -95,-20 -27,-8 -99,-19 -160,-25 -60,-6 -132,-16 -160,-21 -69,-13 -379,-32 -625,-37 -192,-4 -289,2 -458,29 -35,5 -122,14 -194,19 -71,5 -144,14 -162,19 -17,5 -74,17 -126,26 -91,16 -137,27 -253,60 -29,8 -125,33 -212,55 -88,22 -174,47 -192,55 -17,8 -35,15 -40,15 -16,0 -208,63 -217,71 -6,5 -16,9 -24,9 -7,0 -68,26 -135,59 -67,32 -144,69 -172,81 -27,13 -88,44 -135,71 -152,86 -194,108 -290,157 -110,56 -170,96 -298,201 -52,42 -121,98 -155,124 -157,121 -185,145 -237,193 -30,28 -75,64 -100,79 -25,16 -110,93 -190,173 -178,177 -180,179 -217,157 -24,-14 -84,-89 -144,-182 -26,-39 -99,-113 -112,-113 -33,0 -76,38 -189,166 -35,40 -88,101 -119,135 -31,35 -74,86 -94,113 -21,27 -49,59 -64,72 -15,12 -40,46 -56,76 -16,29 -45,73 -64,98 -20,25 -64,102 -99,170 -35,69 -67,132 -72,140 -5,8 -29,50 -54,93 -25,43 -46,80 -46,83 0,17 -75,94 -91,94 -11,0 -19,-3 -19,-8 z m 152,-449 c 8,-10 29,-42 47,-71 18,-30 36,-59 42,-65 32,-39 79,-107 79,-115 0,-5 7,-15 16,-23 8,-7 32,-38 52,-68 20,-31 52,-75 71,-97 20,-23 50,-61 66,-84 17,-24 74,-95 128,-158 55,-64 105,-125 113,-138 8,-12 33,-34 54,-49 60,-42 54,-83 -25,-176 -59,-70 -71,-85 -104,-133 -18,-26 -61,-79 -95,-117 -98,-108 -102,-158 -19,-218 23,-17 60,-55 83,-86 23,-31 52,-60 66,-65 37,-14 33,-61 -8,-92 -65,-50 -92,-58 -185,-58 -61,1 -94,5 -107,15 -11,8 -30,15 -42,15 -13,0 -53,15 -90,34 -50,26 -92,61 -173,144 -114,117 -233,248 -268,295 -12,16 -39,47 -60,70 -21,22 -68,82 -105,131 -37,50 -71,96 -76,101 -4,6 -28,37 -52,70 -24,33 -59,78 -77,99 -18,22 -33,44 -33,48 0,5 -13,28 -29,51 -50,75 -63,105 -51,127 13,24 32,25 107,4 32,-9 90,-20 128,-25 39,-4 129,-16 200,-25 72,-10 143,-14 157,-11 34,9 41,35 62,212 9,72 20,153 25,180 5,28 10,70 11,95 0,25 7,63 15,85 8,22 14,57 15,78 0,32 3,37 23,37 13,0 31,-8 39,-17 z m 9818,-18 c 9,-11 11,-93 9,-336 -4,-376 -11,-355 101,-345 36,4 137,11 225,17 88,5 187,16 220,24 102,23 127,26 141,14 35,-29 8,-92 -107,-245 -38,-50 -69,-94 -69,-97 0,-12 -61,-94 -96,-127 -20,-19 -56,-66 -81,-103 -25,-37 -67,-86 -94,-109 -27,-23 -63,-64 -81,-92 -17,-28 -101,-121 -187,-206 -178,-177 -184,-180 -336,-180 -76,0 -104,4 -135,20 -45,23 -70,54 -70,87 0,23 61,92 142,161 62,52 160,189 153,213 -4,11 -66,84 -138,163 -249,269 -264,289 -251,330 7,21 50,79 113,151 91,104 215,264 266,344 17,25 58,82 93,125 35,42 74,98 88,124 42,79 68,98 94,67 z M 2797,1884 c 7,-18 -6,-45 -25,-52 -15,-5 -33,33 -26,52 8,21 43,21 51,0 z"
       id="path222"
       inkscape:connector-curvature="0"
       style="stroke-width:5.33756065" />
    <path
       d="m 9720,3014 c -22,-20 -40,-46 -40,-57 0,-32 59,-116 86,-123 36,-9 85,3 111,28 18,16 23,32 23,69 0,42 -4,50 -40,83 -27,24 -50,36 -70,36 -20,0 -43,-12 -70,-36 z m 98,-62 c 2,-7 -6,-12 -17,-12 -21,0 -27,11 -14,24 9,9 26,2 31,-12 z"
       id="path224"
       inkscape:connector-curvature="0"
       style="stroke-width:5.33756065" />
    <path
       d="m 2164,2996 c -13,-34 2,-60 46,-83 43,-22 49,-22 126,-11 73,10 85,10 107,-5 14,-9 33,-14 41,-11 18,7 33,71 19,85 -12,12 -140,15 -208,4 -44,-6 -52,-4 -69,14 -22,24 -54,28 -62,7 z"
       id="path226"
       inkscape:connector-curvature="0"
       style="stroke-width:5.33756065" />
    <path
       d="m 1978,2815 c -27,-20 -48,-42 -48,-50 0,-44 29,-58 66,-30 10,8 33,15 51,15 45,0 73,-38 73,-99 0,-55 34,-117 94,-168 35,-31 41,-33 117,-33 75,0 84,2 133,35 29,19 61,51 74,73 28,51 29,125 2,170 -17,28 -25,32 -63,32 -70,0 -108,-56 -72,-104 26,-34 19,-81 -16,-110 -35,-30 -67,-33 -109,-11 -42,22 -60,63 -60,138 0,35 -5,77 -10,94 -16,46 -65,76 -130,81 -51,4 -59,1 -102,-33 z"
       id="path228"
       inkscape:connector-curvature="0"
       style="stroke-width:5.33756065" />
    <path
       d="m 9515,2796 c -27,-13 -68,-43 -90,-66 -22,-23 -66,-62 -97,-87 -81,-62 -76,-105 13,-102 24,1 54,-1 67,-5 37,-12 62,-75 62,-154 0,-64 -2,-71 -26,-86 -36,-24 -65,-16 -90,24 -60,94 -91,113 -208,130 -104,15 -123,67 -50,137 29,27 33,36 24,52 -16,30 -48,36 -79,14 -36,-26 -61,-81 -71,-154 -5,-34 -16,-69 -24,-78 -23,-25 -20,-47 10,-87 32,-42 47,-42 91,-4 40,35 64,37 109,9 44,-27 74,-78 74,-124 0,-32 -7,-45 -45,-81 -53,-52 -105,-66 -136,-39 -10,10 -35,42 -55,71 -51,78 -86,101 -174,115 -58,9 -82,8 -112,-2 -63,-20 -82,-52 -97,-160 -15,-112 -20,-129 -31,-129 -5,0 -31,20 -60,44 -60,52 -83,57 -191,49 -72,-5 -82,-9 -91,-29 -18,-39 6,-57 64,-50 70,10 122,-7 146,-47 32,-55 35,-97 11,-161 -41,-108 -108,-108 -183,-2 -58,82 -150,135 -251,142 -120,10 -129,20 -70,81 40,41 43,58 15,73 -23,12 -63,5 -106,-21 -28,-17 -40,-38 -89,-154 -8,-20 -28,-38 -59,-53 -51,-26 -59,-49 -26,-82 28,-28 43,-26 136,21 117,57 183,71 257,54 33,-8 68,-22 78,-31 73,-66 83,-192 20,-248 -17,-16 -32,-18 -91,-14 -56,4 -86,13 -140,42 -79,41 -86,42 -156,18 -107,-36 -156,-146 -96,-212 66,-75 206,-58 291,34 20,21 34,26 72,26 91,0 145,18 183,61 20,21 36,42 36,47 0,16 48,36 92,37 64,2 147,65 177,135 16,38 40,147 41,193 0,17 23,4 62,-39 50,-53 116,-85 174,-86 69,0 154,54 188,120 16,31 43,44 121,57 53,9 108,50 175,131 48,58 64,70 119,89 70,26 116,63 137,114 18,43 18,71 -3,133 -20,62 -10,84 35,80 51,-5 132,84 132,145 0,33 -58,110 -92,122 -45,16 -67,13 -123,-13 z m 93,-124 c 4,-23 -4,-27 -27,-13 -17,11 -7,45 12,39 6,-3 13,-14 15,-26 z m -777,-486 c 63,-26 99,-90 99,-175 0,-86 -64,-125 -140,-86 -42,22 -61,66 -67,155 -5,71 -4,78 18,98 27,26 44,27 90,8 z m -940,-656 c 24,-13 25,-61 2,-83 -10,-8 -30,-18 -44,-22 -21,-5 -30,-2 -43,16 -22,32 -20,54 6,79 24,22 49,25 79,10 z"
       id="path230"
       inkscape:connector-curvature="0"
       style="stroke-width:5.33756065" />
    <path
       d="m 9913,2780 c -65,-26 -54,-123 17,-155 55,-25 110,-2 131,54 10,26 -19,84 -51,101 -23,12 -67,12 -97,0 z"
       id="path232"
       inkscape:connector-curvature="0"
       style="stroke-width:5.33756065" />
    <path
       d="m 2742,2748 c -32,-32 6,-83 98,-132 70,-36 94,-62 93,-100 -1,-19 -4,-39 -8,-45 -10,-18 -54,-13 -104,12 -25,13 -73,26 -106,30 -51,5 -67,3 -95,-14 -57,-34 -107,-98 -113,-143 -9,-67 3,-97 62,-156 140,-138 285,-154 392,-44 34,35 34,36 30,112 -8,165 -10,155 39,208 56,62 65,67 90,54 15,-8 20,-20 19,-38 -4,-50 0,-62 21,-62 25,0 60,54 60,93 0,35 -24,83 -49,97 -29,15 -98,12 -131,-5 -16,-8 -37,-12 -47,-8 -16,6 -99,62 -195,131 -36,25 -40,26 -56,10 z m 64,-343 c 110,-65 111,-160 2,-219 -62,-33 -88,-31 -138,10 -39,34 -62,78 -62,121 0,112 90,151 198,88 z"
       id="path234"
       inkscape:connector-curvature="0"
       style="stroke-width:5.33756065" />
    <path
       d="m 3862,2090 c -13,-6 -38,-21 -56,-35 -40,-31 -69,-32 -95,-4 -24,26 -59,20 -79,-12 -17,-26 1,-49 62,-79 56,-27 110,-26 149,2 19,13 53,25 82,28 46,5 52,8 70,43 20,38 20,38 1,53 -22,16 -98,18 -134,4 z"
       id="path236"
       inkscape:connector-curvature="0"
       style="stroke-width:5.33756065" />
    <path
       d="m 3971,1904 c -12,-15 -21,-30 -21,-35 0,-4 21,-26 48,-48 l 47,-41 -1,-74 c -2,-81 -20,-127 -61,-145 -30,-14 -71,-5 -100,22 -24,21 -63,113 -63,146 0,25 -51,67 -118,97 -80,35 -106,32 -158,-20 -43,-42 -53,-71 -38,-110 9,-22 69,-21 102,3 65,45 96,33 121,-49 22,-67 44,-93 109,-128 47,-25 72,-32 117,-32 51,0 63,4 101,35 63,52 88,111 80,188 -3,33 -13,68 -21,77 -8,9 -15,25 -15,36 0,23 -29,68 -56,89 -28,21 -50,18 -73,-11 z"
       id="path238"
       inkscape:connector-curvature="0"
       style="stroke-width:5.33756065" />
    <path
       d="m 4295,1782 c -78,-38 -115,-103 -115,-205 0,-35 5,-78 11,-95 13,-38 60,-75 130,-103 30,-11 58,-24 64,-28 5,-4 32,-16 58,-25 69,-26 131,-18 197,25 64,41 80,71 80,147 0,50 -4,62 -26,83 -15,13 -33,39 -41,58 -26,60 -62,98 -121,126 -76,37 -180,44 -237,17 z m 233,-110 c 96,-67 127,-156 75,-214 -26,-30 -114,-78 -142,-78 -15,0 -48,21 -87,56 -75,65 -92,107 -73,177 13,49 23,63 64,89 43,27 95,18 163,-30 z"
       id="path240"
       inkscape:connector-curvature="0"
       style="stroke-width:5.33756065" />
    <path
       d="m 5215,1714 c -83,-46 -100,-49 -163,-23 -31,13 -35,12 -48,-5 -8,-11 -14,-32 -14,-46 0,-35 -24,-56 -82,-70 -57,-15 -83,-41 -99,-101 -18,-68 1,-127 57,-179 24,-22 49,-40 56,-40 7,0 40,-11 73,-25 82,-34 222,-35 310,-3 l 60,21 70,-48 c 64,-44 73,-47 114,-41 84,12 156,110 156,211 -1,82 -29,134 -95,174 -55,34 -70,37 -88,19 -25,-25 -13,-56 33,-88 54,-37 65,-56 65,-109 0,-53 -39,-99 -93,-108 -59,-9 -77,14 -77,100 0,60 -4,77 -30,119 -16,26 -30,51 -30,54 0,3 -13,23 -30,44 -36,46 -37,60 -5,90 44,41 24,100 -33,100 -15,0 -63,-21 -107,-46 z m 23,-146 c 17,-11 32,-25 32,-32 0,-7 -26,-23 -57,-36 -79,-32 -96,-48 -89,-84 10,-49 51,-93 94,-101 60,-10 66,-19 26,-40 l -35,-19 -117,30 c -108,28 -117,32 -120,55 -2,20 3,27 32,37 19,7 46,28 60,47 23,30 25,39 20,94 -6,57 -6,61 17,70 32,13 97,3 137,-21 z m 50,-142 c 6,-31 -43,-50 -54,-21 -8,20 15,47 35,43 9,-2 17,-12 19,-22 z"
       id="path242"
       inkscape:connector-curvature="0"
       style="stroke-width:5.33756065" />
    <path
       d="m 7398,1750 c -9,-6 -60,-19 -115,-29 -54,-11 -114,-26 -133,-34 -19,-8 -61,-15 -93,-16 -31,-1 -69,-6 -83,-11 -15,-6 -65,-15 -113,-20 -159,-19 -181,-25 -213,-59 -33,-35 -44,-38 -68,-16 -26,24 -124,45 -205,45 -130,0 -185,-38 -185,-129 0,-32 6,-45 35,-72 45,-43 48,-82 6,-104 -38,-19 -86,-65 -95,-89 -8,-22 15,-60 44,-76 30,-16 56,3 82,58 19,39 27,47 48,44 13,-1 37,-18 53,-37 32,-40 120,-71 165,-60 48,12 109,59 132,103 13,23 28,42 34,42 6,0 34,-18 61,-40 80,-64 107,-73 205,-68 75,4 90,8 131,36 26,18 50,32 54,32 17,0 75,55 89,85 9,18 16,59 16,93 0,51 -4,65 -30,97 -32,41 -39,82 -15,91 23,9 42,-12 49,-56 11,-71 100,-118 191,-101 37,7 58,19 92,54 41,40 45,49 46,94 1,40 -5,57 -28,88 -43,55 -113,80 -157,55 z m 90,-148 c 5,-32 -26,-64 -57,-60 -33,4 -43,55 -14,75 28,21 67,12 71,-15 z m -1048,-57 c 55,-29 35,-84 -40,-106 -49,-15 -88,-5 -102,26 -31,68 63,121 142,80 z m 279,-39 c 23,-28 -17,-68 -45,-45 -18,15 -18,24 2,43 19,20 28,20 43,2 z m 365,0 c 44,-19 66,-52 66,-101 -1,-62 -29,-98 -107,-139 -40,-20 -131,-21 -160,-1 -31,21 -63,78 -63,109 0,39 13,59 71,105 46,37 57,41 106,41 29,0 69,-6 87,-14 z m -495,-113 c 17,-64 8,-117 -25,-150 -31,-31 -65,-25 -109,17 -16,15 -45,37 -63,48 -36,21 -33,29 28,55 19,8 51,31 70,51 51,54 80,48 99,-21 z"
       id="path244"
       inkscape:connector-curvature="0"
       style="stroke-width:5.33756065" />
  </g>
</svg>
