<svg width="56" height="56" viewBox="26 26 56 56" fill="none" xmlns="http://www.w3.org/2000/svg">
<path fill-rule="evenodd" clip-rule="evenodd" d="M57.1694 49.0624C56.5137 49.1095 55.7113 49.4737 54.8674 50.4409L54.4553 50.9131L54.041 50.4427C52.8656 49.1082 51.7661 48.9177 50.976 49.1593C50.1443 49.4137 49.4841 50.1922 49.2929 51.1142C49.2313 51.4114 48.9405 51.6023 48.6434 51.5407C48.3462 51.4791 48.1553 51.1883 48.2169 50.8911C48.4784 49.6297 49.3893 48.4954 50.6546 48.1084C51.8319 47.7484 53.185 48.0696 54.4513 49.2832C55.311 48.4502 56.2136 48.0293 57.0905 47.9663C58.1091 47.893 59.0069 48.3094 59.653 48.9601C60.9183 50.2344 61.3221 52.5464 59.7435 54.1409L59.7347 54.1498L54.452 59.0209L51.2124 56.012C50.9901 55.8055 50.9773 55.4578 51.1838 55.2355C51.3903 55.0131 51.738 55.0003 51.9603 55.2068L54.4547 57.5236L58.9709 53.3592C60.0278 52.282 59.8045 50.6723 58.8732 49.7345C58.4198 49.2779 57.8247 49.0153 57.1694 49.0624Z" fill="#52A657"/>
<path fill-rule="evenodd" clip-rule="evenodd" d="M52.2966 50.6165L54.0718 53.7231L55.0663 52.3971H56.6725C56.976 52.3971 57.222 52.6431 57.222 52.9466C57.222 53.2501 56.976 53.4961 56.6725 53.4961H55.6158L53.9475 55.7205L52.1723 52.6139L51.1778 53.9399H48.684C48.3805 53.9399 48.1345 53.6939 48.1345 53.3904C48.1345 53.087 48.3805 52.8409 48.684 52.8409H50.6283L52.2966 50.6165Z" fill="white"/>
<path d="M56.2871 41.4103C64.2834 41.5734 69.6544 46.7655 72.7539 51.0929C72.8826 51.2726 73.0114 51.4546 73.1396 51.6378C73.3894 51.9946 73.6382 52.3573 73.8818 52.7257C75.3536 54.9506 76.6703 57.382 77.1426 59.7452C77.6175 62.1221 77.2388 64.444 75.3047 66.3995C73.9199 67.8008 71.9791 68.5804 70.0098 68.5284V68.5294C67.6686 68.5294 65.4436 67.6896 63.4268 66.6476V66.6466C63.3422 66.6031 63.2473 66.5551 63.1416 66.502C62.9888 66.4253 62.8123 66.3397 62.6133 66.2481C61.2261 65.6103 58.6748 64.6835 54.8008 64.6837C54.0017 64.6837 53.1725 64.7243 52.3379 64.8038C49.0291 65.1201 47.3973 66.1195 45.6387 67.1954C43.7498 68.351 41.772 69.5606 37.75 69.9825C35.5646 70.2141 33.2179 69.708 31.7822 67.8214C30.6852 66.3797 30.286 64.4604 30.2344 62.6329C30.1826 60.8012 30.4793 59.0278 30.8066 57.8458C30.8345 57.7449 30.8645 57.6417 30.8965 57.5362C30.9634 57.3156 31.0393 57.085 31.126 56.8458C32.5069 53.0335 36.5341 47.039 48.1777 42.8595C48.2632 42.8288 48.3492 42.7982 48.4355 42.7677C50.8077 41.9016 53.3646 41.4064 55.8994 41.4063C56.029 41.4063 56.1588 41.4076 56.2871 41.4103ZM55.8994 42.838C53.534 42.838 51.1401 43.3041 48.917 44.1173L48.9141 44.1183C48.8109 44.1547 48.7083 44.1909 48.6064 44.2276C37.7012 48.1551 33.8894 53.6278 32.5557 57.1085C32.4793 57.3078 32.4107 57.5007 32.3496 57.6866C32.288 57.8742 32.2344 58.055 32.1865 58.2276C31.9142 59.2123 31.6403 60.8041 31.668 62.4522C31.6957 64.1064 32.0264 65.7766 32.9229 66.9552C34.0059 68.3792 35.831 68.7479 37.5996 68.5587L38.2725 68.4776C41.5303 68.0314 43.2259 66.992 44.8906 65.9737C46.6838 64.8768 48.5649 63.7262 52.2012 63.379H52.2021C53.0815 63.2959 53.9543 63.252 54.7998 63.252C59.0881 63.252 61.8869 64.3196 63.3604 65.0157C63.5562 65.1082 63.7279 65.1944 63.876 65.2696C63.9492 65.3069 64.0167 65.3415 64.0781 65.3731C65.9581 66.3165 67.922 67.0978 70.0098 67.0978H70.0166C71.602 67.144 73.1686 66.5181 74.2861 65.3927L74.5752 65.0802C75.9392 63.4968 76.1236 61.5991 75.6279 59.5763C75.0964 57.4072 73.7871 55.1233 72.3438 53.005C72.2105 52.8094 72.0763 52.6152 71.9414 52.4229C71.8245 52.2562 71.7072 52.0907 71.5898 51.9269C68.6553 47.8289 63.6458 43.0024 56.2764 42.8419C56.1515 42.8392 56.0256 42.838 55.8994 42.838Z" fill="#91FFB9" stroke="#91FFB9" stroke-width="0.5"/>
<path d="M57.5018 38.4903C59.279 38.4792 61.0489 38.7162 62.7605 39.1947C73.2945 42.2141 75.8295 51.1753 76.9119 55.0019C77.6263 57.5251 77.6031 62.3512 75.3574 65.3203C74.79 66.0957 74.0421 66.7212 73.1786 67.1425C72.315 67.5637 71.3618 67.7681 70.4014 67.738C70.1131 67.7374 69.8252 67.7222 69.5385 67.6923C65.5801 67.2849 63.7822 66.3283 61.8783 65.3159C59.8241 64.1442 57.591 63.3189 55.2685 62.8734C53.6004 62.5216 51.9012 62.339 50.1965 62.3284C47.6288 62.3284 45.361 62.7864 43.459 63.6894L43.3168 63.7581C42.4758 64.168 39.9164 65.415 37.1105 65.415C35.0224 65.415 33.2669 64.7244 31.8904 63.3631C28.1669 59.6791 29.1912 53.9158 34.5635 48.323C38.3736 44.3577 48.298 38.4903 57.5018 38.4903ZM70.4011 66.8064C71.217 66.8331 72.0269 66.6604 72.7611 66.3035C73.4952 65.9466 74.1315 65.4163 74.6145 64.7582C76.6445 62.0737 76.6579 57.5276 76.0279 55.2997C74.9745 51.5784 72.5388 42.967 62.504 40.0902C60.8758 39.636 59.1921 39.411 57.5018 39.422C48.5689 39.422 38.9344 45.1184 35.2361 48.9684C31.3323 53.0317 28.5759 58.7732 32.5461 62.7009C33.1476 63.2902 33.8621 63.7518 34.6464 64.0581C35.4307 64.3644 36.2688 64.509 37.1105 64.4832C39.7012 64.4832 42.1152 63.3071 42.9087 62.9205L43.0579 62.8482C45.0885 61.885 47.4898 61.3967 50.1962 61.3967C51.9639 61.4073 53.7258 61.5964 55.4555 61.9608C57.8644 62.427 60.1816 63.2823 62.3156 64.4933C64.2157 65.504 65.8566 66.3766 69.6343 66.7656C69.889 66.7923 70.145 66.8058 70.4011 66.8064Z" fill="#52A657"/>
<path fill-rule="evenodd" clip-rule="evenodd" d="M62.6856 39.4591C60.9989 38.9877 59.2548 38.7541 57.5035 38.7651L57.5018 38.7651C52.9543 38.7651 48.2137 40.2159 44.1285 42.1676C40.0423 44.1197 36.6383 46.5602 34.7616 48.5133C32.0989 51.2854 30.5362 54.0773 30.0865 56.6069C29.639 59.1251 30.2907 61.3939 32.0837 63.1678C33.4044 64.474 35.0886 65.1403 37.1105 65.1403C39.8468 65.1403 42.3552 63.9212 43.1964 63.5112L43.1973 63.5107L43.3395 63.4421L43.3412 63.4413C45.2872 62.5173 47.5969 62.0536 50.1965 62.0536H50.1983C51.9206 62.0644 53.6374 62.2488 55.3227 62.6041C57.6727 63.0551 59.9322 63.8901 62.0109 65.0752L62.015 65.0774C63.9005 66.08 65.6631 67.0173 69.5667 67.4191L69.567 67.4191C69.8444 67.448 70.123 67.4627 70.4019 67.4632L70.406 67.4632L70.41 67.4634C71.3258 67.4921 72.2347 67.2972 73.0581 66.8956C73.8816 66.4939 74.5947 65.8975 75.1357 65.1581L75.137 65.1563L75.1383 65.1546C76.2205 63.7239 76.7773 61.8294 76.9715 59.9654C77.1655 58.1024 76.9941 56.3006 76.6476 55.0767L76.6476 55.0767C75.5657 51.2521 73.0643 42.4344 62.6856 39.4591ZM57.5009 38.2156C59.3034 38.2044 61.0985 38.4449 62.8345 38.9302L62.8362 38.9306C73.5173 41.9922 76.0896 51.0856 77.174 54.9189L77.1763 54.9271C77.5442 56.2264 77.7183 58.0993 77.518 60.0224C77.3178 61.9438 76.7406 63.9461 75.5779 65.4843C74.9843 66.295 74.2021 66.9489 73.299 67.3894C72.3965 67.8297 71.4005 68.0435 70.3969 68.0127C70.1008 68.012 69.805 67.9963 69.5104 67.9657C65.5024 67.5531 63.6688 66.5791 61.7493 65.5585L61.7457 65.5566L61.7422 65.5545C59.7142 64.3978 57.5096 63.5831 55.2167 63.1432L55.2142 63.1428L55.2118 63.1422C53.5622 62.7943 51.8817 62.6137 50.1958 62.6031C47.6607 62.6032 45.4353 63.0554 43.5776 63.9373C43.5773 63.9374 43.5771 63.9375 43.5768 63.9376L43.4372 64.0051L43.4363 64.0055L43.4327 64.0073C42.5873 64.4194 39.9809 65.6898 37.1105 65.6898C34.9563 65.6898 33.1294 64.9748 31.6972 63.5584L31.6972 63.5584C29.7666 61.6483 29.0687 59.1935 29.5455 56.5108C30.0203 53.8396 31.6559 50.9534 34.3654 48.1327L34.3654 48.1326C36.2989 46.1204 39.7621 43.6446 43.8916 41.6718C48.0218 39.6986 52.845 38.2158 57.5009 38.2156ZM57.5009 39.1473C59.2165 39.1362 60.9253 39.3646 62.5778 39.8256L62.5797 39.8261C72.7596 42.7445 75.2338 51.4855 76.2891 55.2136L76.2923 55.2249L76.2923 55.225C76.6183 56.3777 76.7733 58.1067 76.5921 59.8856C76.411 61.6624 75.8909 63.5249 74.8349 64.9223C74.3256 65.6157 73.6549 66.1745 72.8812 66.5506C72.1082 66.9264 71.2555 67.1086 70.3964 67.0812C70.1324 67.0804 69.8685 67.0664 69.6057 67.0389C65.7792 66.6448 64.1027 65.7551 62.1866 64.7358L62.1833 64.7341L62.1801 64.7322C60.072 63.536 57.783 62.6911 55.4033 62.2305L55.4011 62.2301L55.3988 62.2296C53.6875 61.8691 51.9442 61.682 50.1953 61.6714C47.5222 61.6716 45.1632 62.1538 43.1766 63.0959C43.1763 63.0961 43.176 63.0963 43.1756 63.0964L43.029 63.1675L43.0285 63.1677L43.0229 63.1705C42.2247 63.5594 39.7671 64.7567 37.1147 64.758C36.2375 64.7843 35.364 64.6332 34.5465 64.314C33.7277 63.9943 32.9818 63.5123 32.3539 62.8972L32.3529 62.8962C30.2811 60.8466 29.9727 58.3183 30.6738 55.8115C31.3712 53.3179 33.0684 50.8282 35.038 48.778C36.9156 46.8235 40.2784 44.4193 44.2875 42.5036C48.2975 40.5875 52.9804 39.1474 57.5009 39.1473ZM62.4292 40.3546C60.8259 39.9074 59.168 39.686 57.5036 39.6967L57.5018 39.6967C53.0897 39.6967 48.4893 41.1048 44.5244 42.9994C40.5585 44.8944 37.255 47.2633 35.4343 49.1587L35.4343 49.1587C33.5001 51.172 31.8672 53.5847 31.203 55.9595C30.5425 58.321 30.8409 60.6271 32.7388 62.505C33.3137 63.0682 33.9966 63.5094 34.7463 63.8022C35.4962 64.095 36.2975 64.2333 37.1021 64.2086L37.1063 64.2085H37.1105C39.6312 64.2085 41.9936 63.0607 42.7884 62.6735L42.7889 62.6733L42.938 62.601L42.9401 62.6C45.0143 61.6161 47.4573 61.122 50.1963 61.122H50.1979C51.9833 61.1327 53.7629 61.3236 55.5099 61.6915C57.9461 62.1632 60.2896 63.0281 62.448 64.2525L62.45 64.2536C64.3317 65.2545 65.9375 66.1087 69.6625 66.4924L69.6629 66.4924C69.9083 66.5181 70.1549 66.5311 70.4018 66.5317L70.4059 66.5317L70.4101 66.5318C71.1813 66.557 71.947 66.3938 72.641 66.0564C73.335 65.719 73.9365 65.2177 74.393 64.5957L74.3942 64.5941L74.3954 64.5925C75.3686 63.3056 75.8698 61.5535 76.0454 59.8299C76.2209 58.1076 76.0676 56.4497 75.7636 55.3745C74.7104 51.6537 72.3079 43.1871 62.4292 40.3546Z" fill="#52A657"/>
</svg>
